<?xml version="1.0" standalone="no"?>
<!DOCTYPE svg PUBLIC "-//W3C//DTD SVG 20010904//EN"
 "http://www.w3.org/TR/2001/REC-SVG-20010904/DTD/svg10.dtd">
<svg version="1.0" xmlns="http://www.w3.org/2000/svg"
 width="810.000000pt" height="1440.000000pt" viewBox="0 0 810.000000 1440.000000"
 preserveAspectRatio="xMidYMid meet">

<g transform="translate(0.000000,1440.000000) scale(0.100000,-0.100000)"
fill="#000000" stroke="none">
<path d="M2254 12030 c-179 -26 -362 -139 -462 -283 -66 -96 -89 -144 -114
-235 -19 -69 -21 -113 -26 -411 l-4 -335 -24 -19 c-24 -18 -24 -22 -24 -178 0
-160 7 -199 35 -199 13 0 15 -26 15 -155 0 -129 -2 -155 -15 -155 -31 0 -35
-38 -35 -359 0 -277 2 -322 16 -335 8 -9 20 -16 25 -16 5 0 9 -36 9 -80 0 -44
-4 -80 -9 -80 -5 0 -17 -7 -25 -16 -14 -13 -16 -59 -16 -344 l0 -330 25 -16
25 -16 3 -2747 c2 -2588 4 -2750 20 -2811 39 -143 131 -287 240 -378 71 -59
215 -127 309 -146 68 -14 280 -16 1818 -16 1944 0 1820 -4 1980 71 113 53 178
105 249 194 63 79 108 165 138 261 17 56 18 198 20 2919 l3 2860 23 10 22 10
3 540 c1 297 0 550 -3 562 -3 12 -14 25 -25 28 -20 6 -20 16 -20 783 -1 827
-2 859 -50 985 -49 129 -171 273 -293 345 -68 41 -171 77 -257 91 -76 13
-3493 13 -3576 1z m3581 -286 c48 -12 8 -39 -135 -90 -125 -44 -113 -47 -217
48 -48 42 -35 46 151 48 96 0 186 -2 201 -6z m-1177 -85 c2 -8 -2 -6 -8 4 -6
9 -18 17 -25 17 -8 0 -15 5 -15 11 0 16 43 -13 48 -32z m-68 27 c0 -2 -7 -7
-16 -10 -8 -3 -12 -2 -9 4 6 10 25 14 25 6z m703 -50 c95 -56 122 -69 173 -83
42 -10 59 -11 69 -3 8 7 18 10 22 7 13 -7 55 12 48 22 -3 5 -1 12 5 16 5 3 10
-1 10 -9 0 -20 7 -20 59 -1 42 15 44 15 61 15 6 0 10 8 10 18 0 13 2 14 9 4 7
-11 17 -11 57 3 27 9 55 22 63 28 8 7 16 11 18 9 2 -1 21 2 42 9 47 14 66 5
115 -54 55 -68 89 -151 90 -222 l1 -60 -50 -26 c-79 -41 -183 -99 -265 -147
-41 -24 -97 -55 -125 -68 -147 -70 -375 -224 -466 -314 -130 -129 -193 -307
-183 -515 7 -136 48 -212 131 -244 42 -17 225 -15 393 4 237 26 294 35 360 55
63 19 187 50 203 50 4 0 7 -101 7 -225 l0 -225 -25 -12 c-14 -6 -25 -16 -25
-21 0 -6 -5 -6 -12 0 -17 13 -85 10 -99 -4 -7 -7 -8 -19 -4 -30 4 -10 7 -29 6
-42 -2 -17 1 -22 11 -19 9 4 14 -2 15 -14 2 -16 -3 -19 -21 -16 -21 4 -23 2
-19 -24 2 -16 0 -28 -6 -28 -6 0 -11 -5 -11 -11 0 -5 4 -8 9 -4 19 11 16 -32
-6 -96 -13 -40 -25 -105 -29 -163 l-6 -96 25 9 c37 14 97 3 97 -19 0 -16 37
-58 46 -52 10 6 24 1 38 -14 14 -13 16 -54 16 -294 l0 -278 -57 -10 -58 -11
58 5 57 4 0 -296 0 -296 -120 7 c-65 3 -130 8 -142 10 -13 3 -43 8 -68 11 -25
3 -56 7 -70 10 -14 2 -41 7 -60 10 -19 3 -43 10 -52 15 -10 5 -18 7 -18 4 0
-3 -8 -1 -19 4 -10 6 -33 13 -52 16 -37 6 -98 24 -114 34 -5 3 -18 7 -28 8
-10 2 -40 12 -65 22 -26 11 -83 33 -127 50 -44 17 -120 46 -170 65 -49 19
-110 39 -135 46 -25 6 -76 22 -115 35 -89 29 -257 66 -253 55 2 -5 34 -35 72
-67 38 -32 104 -101 147 -153 43 -52 83 -94 89 -92 6 1 9 -2 5 -8 -3 -5 5 -15
18 -21 17 -8 23 -17 20 -30 -3 -10 0 -19 6 -19 11 0 15 13 12 38 -2 17 9 15
31 -5 15 -14 24 -15 47 -6 26 9 30 8 41 -15 8 -19 8 -28 1 -30 -6 -2 -11 -10
-11 -18 0 -13 7 -16 26 -13 10 1 24 -24 24 -43 0 -10 -7 -18 -15 -18 -21 0
-19 -21 3 -27 14 -3 18 -11 14 -30 l-5 -26 -18 24 c-10 13 -19 33 -19 44 0 11
-8 25 -18 32 -20 12 -72 6 -72 -9 0 -20 31 -68 45 -68 8 0 19 -10 26 -22 6
-13 20 -30 31 -39 18 -14 19 -18 6 -30 -11 -10 -13 -23 -6 -58 4 -25 4 -49 -1
-54 -5 -5 -3 -39 5 -80 16 -83 23 -403 11 -492 -4 -33 -13 -78 -18 -100 -6
-22 -13 -50 -16 -63 -15 -62 -23 -20 -21 110 2 79 0 163 -4 188 -4 25 -14 108
-22 185 -8 77 -22 176 -30 219 -9 44 -14 81 -12 83 10 11 -32 99 -52 108 -23
10 -31 27 -9 21 6 -3 24 -7 40 -10 37 -9 35 12 -3 25 -16 6 -30 16 -30 22 0
11 -63 119 -83 142 -40 48 -117 159 -112 163 10 11 -167 171 -250 227 -46 30
-86 55 -90 55 -4 0 -37 15 -75 34 -192 97 -361 109 -626 45 -45 -10 -95 -26
-110 -34 -16 -8 -34 -15 -41 -15 -7 0 -54 -28 -106 -63 l-94 -63 -29 24 c-16
13 -87 68 -159 121 -189 140 -415 322 -565 457 -202 181 -403 364 -441 403
-25 25 -69 68 -97 94 l-52 48 0 402 0 402 59 33 c33 17 70 32 83 32 13 0 28 4
34 9 5 5 18 11 29 13 11 2 20 10 20 17 0 8 8 15 18 17 11 1 15 -2 10 -9 -3 -7
3 -3 15 7 12 11 22 16 22 11 0 -4 6 -2 14 4 22 18 84 21 97 4 7 -7 18 -12 26
-9 8 3 11 2 8 -3 -9 -16 26 -94 38 -82 6 6 18 6 32 1 13 -5 25 -7 27 -4 3 2
13 -5 23 -16 22 -24 35 -26 35 -4 0 12 8 15 33 11 47 -6 76 -24 87 -53 5 -13
24 -95 41 -182 18 -86 36 -161 42 -167 10 -11 6 12 -23 140 -10 44 -26 123
-35 175 -10 52 -19 100 -20 106 -2 7 -34 21 -72 32 -147 43 -194 55 -208 55
-8 0 -15 4 -15 9 0 4 -3 7 -7 6 -5 -1 -28 7 -52 18 l-45 20 120 71 c65 40 133
77 149 83 17 6 53 26 80 44 63 42 314 182 359 201 19 8 37 19 41 24 16 27 108
54 103 30 -2 -6 7 -13 19 -15 13 -2 22 -1 22 4 -1 4 2 17 6 28 7 22 57 40 76
28 5 -3 8 0 7 7 -2 7 6 14 17 16 16 3 17 2 5 -6 -8 -5 -12 -12 -9 -16 3 -3 14
4 24 15 18 20 17 20 -9 20 -73 0 37 74 334 225 30 16 84 45 120 66 125 71 272
142 279 133 7 -11 72 -14 65 -3 -2 4 0 11 6 14 8 5 7 11 -1 21 -15 18 -9 24
64 63 l59 31 -179 3 c-98 1 98 4 435 5 668 2 653 1 715 60 38 36 63 86 72 147
5 28 10 43 12 35 2 -8 18 -24 36 -34z m367 -46 c-18 -12 -30 -13 -30 -2 0 4
10 9 22 9 18 2 20 0 8 -7z m-2442 -167 c-10 -2 -28 -2 -40 0 -13 2 -5 4 17 4
22 1 32 -1 23 -4z m429 1 c-3 -3 -12 -4 -19 -1 -8 3 -5 6 6 6 11 1 17 -2 13
-5z m46 -1 c-7 -2 -19 -2 -25 0 -7 3 -2 5 12 5 14 0 19 -2 13 -5z m60 0 c-7
-2 -21 -2 -30 0 -10 3 -4 5 12 5 17 0 24 -2 18 -5z m75 0 c-10 -2 -28 -2 -40
0 -13 2 -5 4 17 4 22 1 32 -1 23 -4z m249 -109 c-3 -3 -12 -4 -19 -1 -8 3 -5
6 6 6 11 1 17 -2 13 -5z m1939 -1676 c4 -7 3 -8 -4 -4 -7 4 -12 0 -12 -10 0
-10 -3 -15 -6 -11 -7 6 2 37 10 37 3 0 8 -5 12 -12z m134 -506 c0 -51 -1 -54
-22 -48 -13 3 -27 6 -32 6 -4 0 -5 11 -2 24 4 18 1 28 -11 35 -16 10 -16 12
-2 23 8 7 18 21 22 32 7 18 8 18 27 1 15 -14 20 -31 20 -73z m-3939 -148 c322
-270 765 -614 960 -745 49 -33 89 -62 89 -66 0 -7 -124 -150 -152 -175 -18
-16 -22 -16 -67 12 -27 17 -53 30 -60 30 -6 0 -11 4 -11 8 0 9 -57 47 -145 97
-27 16 -58 37 -69 47 -11 10 -24 18 -28 18 -5 0 -18 9 -30 20 -12 11 -28 20
-35 20 -7 0 -13 4 -13 8 0 5 -16 16 -35 25 -19 9 -35 21 -35 27 0 5 -5 10 -10
10 -10 0 -98 56 -127 80 -7 5 -17 10 -23 10 -5 0 -10 4 -10 8 0 5 -12 15 -27
23 -48 24 -155 98 -181 124 -14 14 -31 25 -38 25 -8 0 -14 4 -14 9 0 5 -25 20
-55 35 -31 14 -58 33 -61 41 -4 8 -14 15 -24 15 -10 0 -23 7 -30 15 -7 8 -16
12 -21 9 -5 -3 -9 100 -9 241 l0 246 58 -48 c32 -26 124 -102 203 -169z m-211
-506 c0 -4 -11 -2 -25 4 -14 6 -25 17 -25 25 0 11 6 10 25 -4 13 -10 25 -21
25 -25z m100 -65 c0 -9 -84 44 -88 56 -2 6 17 -2 42 -19 25 -17 46 -34 46 -37z
m134 -141 c143 -95 294 -199 335 -231 42 -31 119 -86 171 -121 52 -35 125 -87
162 -117 37 -29 71 -53 75 -53 4 1 26 37 48 81 36 73 69 117 147 200 36 39 55
37 26 -2 -13 -17 -38 -52 -57 -77 -18 -26 -37 -46 -42 -45 -4 2 -6 -4 -3 -11
3 -8 -6 -31 -20 -53 -59 -91 -95 -222 -136 -498 -10 -68 -10 -220 0 -275 5
-27 4 -50 -1 -57 -6 -7 -6 -13 0 -17 5 -3 17 -41 26 -83 17 -74 65 -225 86
-268 10 -22 9 -76 -2 -69 -4 2 -26 52 -49 111 -56 143 -90 255 -96 323 -2 14
-5 48 -8 75 -3 28 -7 93 -9 145 l-3 95 -59 57 c-32 31 -62 55 -67 52 -8 -5 37
-69 67 -94 8 -7 15 -18 15 -25 0 -7 7 -16 15 -19 14 -5 14 -9 0 -35 -19 -38
-26 -42 -93 -51 -75 -11 -393 -61 -412 -65 -8 -2 -36 -7 -62 -11 -27 -3 -48
-11 -48 -16 0 -5 4 -7 9 -4 4 3 35 7 67 10 33 2 66 7 74 9 13 5 84 17 192 32
113 15 138 17 138 6 0 -6 -6 -8 -14 -5 -8 3 -17 0 -21 -5 -3 -6 -11 -9 -16 -6
-5 4 -9 1 -9 -5 0 -7 6 -10 14 -7 22 9 26 -3 11 -33 -8 -15 -11 -31 -7 -35 4
-5 1 -5 -6 -1 -9 5 -9 12 -1 27 14 27 3 38 -15 14 -15 -20 -51 -31 -39 -12 4
7 8 16 8 21 0 5 6 11 13 14 8 2 10 -3 6 -15 -5 -14 -4 -15 4 -4 6 8 8 20 5 28
-10 27 -54 -27 -51 -62 2 -20 -1 -29 -10 -27 -10 2 -10 -2 -2 -18 6 -11 16
-20 23 -20 8 0 7 4 -3 11 -11 8 -9 9 10 4 33 -9 45 -21 29 -30 -7 -5 -10 -4
-5 3 4 7 -6 10 -28 9 -26 -2 -32 -5 -24 -14 6 -7 8 -14 4 -14 -3 -1 -9 -2 -13
-3 -19 -3 -31 -18 -28 -34 1 -9 -2 -23 -8 -30 -8 -10 -7 -12 4 -10 19 4 29 30
17 46 -9 10 -7 15 5 11 1 0 15 4 30 10 18 7 26 7 22 1 -3 -6 -13 -10 -22 -10
-9 0 -13 -3 -10 -7 4 -3 1 -13 -6 -21 -8 -11 -8 -14 0 -9 6 4 14 3 18 -3 3 -5
-1 -10 -10 -10 -13 0 -16 -6 -11 -24 4 -15 1 -28 -6 -32 -8 -5 -9 -2 -4 11 7
18 6 18 -14 0 -18 -16 -20 -17 -14 -2 3 9 2 17 -3 17 -13 0 -13 -32 0 -47 7
-9 5 -13 -7 -13 -9 0 -16 -5 -16 -11 0 -5 -4 -7 -10 -4 -5 3 -10 4 -10 0 0 -3
10 -10 23 -15 19 -8 19 -9 3 -9 -19 -1 -19 -2 -1 -21 22 -24 28 -49 11 -46
-24 4 -33 17 -31 46 2 21 -2 30 -12 30 -8 0 -12 -4 -9 -9 3 -5 -4 -11 -16 -14
-19 -5 -20 -8 -7 -23 8 -10 9 -15 3 -11 -16 10 -25 -18 -11 -33 10 -10 8 -10
-8 -3 -15 7 -24 6 -35 -7 -22 -25 -23 -42 -3 -38 10 2 17 10 15 17 -1 7 2 10
8 6 8 -5 7 -11 -1 -21 -6 -8 -8 -14 -4 -14 4 0 2 -7 -5 -15 -12 -14 -7 -19 13
-16 5 1 6 -3 2 -9 -3 -6 -10 -8 -15 -5 -5 3 -11 1 -15 -5 -3 -5 -12 -10 -18
-10 -7 0 -4 5 6 11 9 6 15 15 11 20 -4 6 -13 4 -25 -7 -10 -9 -16 -20 -14 -25
3 -4 0 -11 -6 -15 -6 -3 -15 -1 -19 6 -6 9 -9 9 -15 0 -5 -8 -11 -6 -20 7 -11
15 -15 15 -29 4 -9 -7 -16 -10 -16 -5 0 4 -5 3 -12 -4 -7 -7 -26 -12 -43 -12
l-30 -1 25 -14 c14 -8 49 -14 77 -15 31 0 80 -10 120 -25 77 -29 106 -50 58
-42 -158 28 -167 28 -247 18 -46 -6 -100 -13 -120 -17 -31 -5 -38 -4 -38 10 0
17 -15 22 -25 7 -3 -5 -19 -13 -36 -16 -23 -5 -28 -9 -18 -16 11 -7 10 -9 -3
-9 -17 0 -18 29 -18 478 0 311 4 472 10 462 5 -8 10 -10 10 -5 0 6 33 11 74
12 41 2 94 5 118 8 24 3 62 6 86 7 23 0 42 4 42 9 0 4 9 6 20 4 11 -2 20 -1
20 3 0 4 11 9 26 10 17 1 23 -2 18 -11 -4 -6 3 -3 15 8 27 24 24 23 42 9 8 -6
23 -9 34 -7 27 6 36 6 63 -1 14 -3 22 0 22 7 0 7 12 14 28 15 81 6 80 6 70 25
-9 17 -123 79 -130 71 -2 -2 -32 -6 -66 -8 -36 -3 -68 -11 -77 -20 -10 -9 -35
-15 -71 -15 -32 0 -60 -3 -63 -8 -3 -5 -13 -8 -21 -8 -8 1 -20 -2 -25 -6 -6
-4 -63 -21 -128 -37 l-117 -30 0 37 c0 33 3 37 27 39 30 2 309 64 375 83 54
16 56 16 68 18 6 0 10 5 10 9 0 6 -67 21 -155 34 -11 2 -22 6 -25 9 -3 3 -41
13 -85 23 -44 10 -96 24 -116 31 -19 7 -49 12 -67 11 l-32 -2 1 125 c1 69 4
114 6 100 3 -20 15 -31 46 -45 136 -58 271 -120 331 -151 140 -72 166 -88 166
-100 0 -7 6 -10 14 -7 9 3 33 -12 59 -35 41 -38 47 -41 83 -33 l38 8 -47 33
c-25 19 -44 38 -41 43 3 5 16 1 27 -9 l22 -18 -20 24 c-25 29 -79 64 -124 79
-19 7 -42 19 -50 26 -9 8 -23 16 -31 18 -8 2 -17 5 -20 8 -7 7 -174 90 -182
90 -3 0 -53 22 -110 48 -56 27 -118 55 -135 62 l-33 12 0 235 c0 185 3 233 13
226 6 -4 129 -85 271 -181z m2200 -284 c-5 -9 -2 -9 9 1 9 7 17 11 17 7 0 -15
2 -22 12 -33 6 -7 14 -11 17 -8 8 4 87 -111 80 -117 -2 -1 7 -20 19 -40 18
-29 21 -41 13 -57 -6 -11 -8 -26 -5 -35 3 -8 1 -31 -6 -50 -9 -28 -15 -34 -32
-31 -12 3 -25 10 -30 17 -6 11 -8 11 -8 0 0 -9 -5 -10 -19 -2 -12 6 -29 7 -43
2 -33 -12 -62 -9 -83 8 -15 12 -17 12 -10 1 5 -10 4 -12 -3 -7 -7 4 -12 18
-12 32 0 14 4 23 9 19 5 -3 12 3 16 14 6 20 32 30 80 31 29 1 29 1 11 15 -11
8 -15 15 -9 15 6 0 14 12 18 27 8 33 -14 53 -59 53 -38 0 -51 -9 -60 -37 -4
-13 -12 -23 -17 -23 -6 0 -8 -4 -4 -9 3 -5 -8 -16 -24 -24 -24 -12 -32 -13
-41 -2 -7 9 -6 16 4 24 8 7 18 27 22 44 9 44 33 89 43 82 5 -2 16 11 25 30 9
19 19 35 22 35 3 0 2 -6 -2 -12 -5 -9 -2 -9 9 1 9 7 17 10 18 5 0 -5 4 1 9 14
5 12 12 22 15 22 4 0 3 -6 -1 -12z m551 -58 c18 -20 17 -20 -18 -20 -30 0 -37
4 -37 20 0 13 7 20 18 20 11 0 27 -9 37 -20z m-2885 -52 c0 -6 -6 -5 -15 2 -8
7 -15 14 -15 16 0 2 7 1 15 -2 8 -4 15 -11 15 -16z m52 -16 c8 -8 5 -9 -11 -5
-12 3 -24 9 -26 13 -8 12 23 6 37 -8z m1863 8 c3 -5 1 -10 -4 -10 -6 0 -11 5
-11 10 0 6 2 10 4 10 3 0 8 -4 11 -10z m-1814 -37 c13 -16 12 -17 -3 -4 -10 7
-18 15 -18 17 0 8 8 3 21 -13z m1834 -9 c14 -15 23 -30 20 -34 -3 -4 2 -13 10
-20 8 -7 15 -16 15 -21 0 -4 14 -37 31 -74 27 -59 29 -69 19 -101 -15 -44 -24
-48 -99 -36 -79 11 -67 -6 21 -33 35 -10 88 -30 118 -44 30 -13 58 -25 61 -25
17 -2 109 -51 109 -58 0 -4 7 -8 16 -8 16 0 95 -40 105 -53 3 -5 8 -7 10 -6 5
4 112 -68 145 -97 13 -11 34 -28 46 -37 42 -31 63 -49 49 -41 -9 4 -12 3 -8
-4 4 -5 17 -8 28 -5 18 5 20 3 14 -16 -4 -15 -3 -21 6 -19 7 2 15 -5 17 -15 3
-16 -1 -17 -35 -11 -21 4 -42 13 -46 20 -18 31 -24 8 -30 -117 -7 -152 -19
-184 -65 -173 -32 8 -193 61 -197 66 -1 2 -6 98 -10 213 -6 184 -13 240 -29
224 -2 -2 0 -58 6 -124 9 -111 6 -241 -7 -253 -8 -8 -45 30 -45 47 0 12 -6 9
-20 -9 -11 -14 -18 -30 -15 -37 2 -6 -3 -17 -10 -23 -8 -7 -12 -17 -8 -23 3
-6 1 -7 -5 -3 -7 4 -12 1 -12 -6 0 -9 -3 -9 -10 2 -9 13 -14 7 -11 -12 0 -5
-2 -8 -7 -8 -4 0 -7 39 -8 88 -2 196 -45 318 -151 433 -67 72 -120 103 -209
124 -152 35 -294 -22 -379 -155 -27 -42 -32 -57 -23 -67 9 -11 13 -12 20 -1 6
11 10 11 17 0 7 -11 9 -10 14 3 4 9 3 13 -2 10 -5 -3 -12 -1 -16 5 -6 10 17
14 28 4 3 -3 -6 -28 -20 -56 -18 -36 -28 -47 -36 -39 -14 14 -27 14 -27 0 0
-5 4 -8 9 -5 11 7 33 -18 24 -28 -4 -3 -8 -16 -10 -28 -2 -12 -7 -26 -11 -32
-9 -13 -9 -23 3 -49 4 -10 11 -15 14 -10 3 5 19 16 34 26 21 14 27 24 23 40
-3 12 -3 16 0 10 12 -26 22 -12 21 30 -1 28 2 41 11 39 11 -2 16 10 13 30 0 4
7 4 16 1 10 -4 14 -2 10 4 -13 21 24 9 45 -15 13 -14 17 -22 11 -18 -9 5 -13
1 -13 -11 -1 -17 -1 -17 -11 0 -5 9 -7 22 -3 29 4 6 3 8 -3 5 -14 -9 -14 -77
-1 -77 5 0 6 5 3 10 -3 6 -1 10 6 10 8 0 10 -11 6 -35 -4 -24 -2 -33 5 -29 6
4 9 1 6 -7 -7 -22 -44 -23 -52 -2 -6 14 -5 16 5 6 17 -17 30 -17 23 0 -2 7
-14 13 -25 14 -13 1 -19 -3 -16 -11 3 -8 1 -18 -4 -23 -6 -6 -3 -15 8 -24 16
-13 17 -12 4 4 -8 10 -9 17 -3 17 6 0 14 -5 17 -11 4 -6 13 -8 21 -5 8 3 14 0
15 -7 0 -7 2 -32 3 -57 2 -25 -1 -96 -7 -159 -6 -79 -6 -120 2 -137 6 -13 7
-24 2 -24 -4 0 -8 -6 -9 -12 0 -7 -4 -50 -9 -96 -10 -94 -2 -109 54 -93 39 11
84 -8 114 -48 14 -19 32 -32 48 -32 24 -2 24 -2 4 -6 -15 -3 -23 -12 -23 -24
0 -11 -9 -44 -19 -74 -10 -29 -16 -56 -13 -59 3 -3 20 -6 37 -6 29 0 37 7 76
67 24 38 48 66 53 65 5 -2 12 1 16 8 4 6 7 -4 7 -22 1 -27 -1 -29 -7 -13 -7
17 -9 16 -10 -10 -2 -16 -2 -36 -1 -42 3 -20 -19 -54 -30 -48 -17 11 -31 -6
-17 -22 27 -32 47 -87 36 -100 -7 -9 -4 -22 11 -46 l20 -33 113 2 c62 1 114 2
116 4 1 1 7 4 12 5 6 1 11 3 13 5 6 5 45 12 75 13 17 0 32 5 32 10 0 4 4 6 9
3 14 -9 41 4 41 19 0 8 4 17 10 20 6 4 7 -1 4 -12 -5 -17 -5 -17 9 -1 8 10 16
15 19 13 3 -3 11 1 18 10 7 8 9 15 5 15 -4 0 -2 7 5 15 17 20 34 19 26 -1 -6
-14 -4 -15 9 -4 12 10 13 15 4 21 -9 5 2 21 34 53 26 24 49 41 52 36 3 -5 12
-7 19 -4 8 3 17 0 21 -7 10 -15 -97 -118 -169 -164 -114 -72 -226 -118 -323
-131 l-52 -7 39 -45 c42 -47 44 -53 41 -142 -2 -50 1 -58 33 -92 48 -51 68
-92 81 -168 11 -63 10 -69 -27 -179 -21 -62 -38 -121 -38 -131 0 -10 16 -44
35 -76 20 -33 62 -111 95 -174 32 -63 74 -141 94 -174 35 -59 53 -107 121
-336 21 -69 40 -132 43 -140 3 -8 4 -18 4 -23 -1 -4 3 -7 9 -7 6 0 9 -7 6 -15
-4 -8 -2 -17 3 -20 5 -3 7 -12 3 -20 -3 -8 0 -15 6 -15 6 0 8 -6 5 -13 -3 -8
1 -27 7 -43 7 -16 13 -31 14 -34 0 -3 7 -30 14 -60 7 -30 22 -91 32 -135 11
-44 23 -93 25 -110 3 -16 7 -36 10 -44 2 -8 9 -85 14 -170 20 -312 37 -428 80
-560 22 -67 43 -128 47 -134 4 -6 8 -20 8 -30 1 -10 6 -22 11 -27 5 -5 9 21
10 66 0 40 -3 74 -8 74 -4 0 -8 5 -8 11 0 5 3 8 8 5 4 -2 12 7 19 20 8 18 8
22 0 17 -9 -5 -9 -3 0 8 6 8 12 28 14 44 2 17 8 36 14 44 8 11 7 13 -3 7 -11
-7 -12 -4 -4 10 5 11 13 35 16 55 3 20 11 49 17 65 7 16 14 42 16 59 3 16 8
34 12 40 8 9 16 43 28 110 3 17 11 41 19 55 7 14 27 63 43 110 50 147 64 171
97 176 11 2 12 1 17 -61 1 -22 7 -46 11 -54 7 -10 5 -12 -5 -6 -11 7 -12 6 -3
-6 13 -17 7 -174 -6 -174 -3 0 -10 -41 -16 -89 -3 -28 -7 -53 -10 -57 -2 -4
-7 -27 -10 -51 -4 -24 -11 -49 -16 -55 -6 -7 -8 -13 -5 -13 4 0 0 -18 -8 -40
-8 -22 -11 -40 -8 -40 3 0 -1 -8 -10 -18 -10 -10 -14 -21 -11 -24 6 -7 -18
-107 -37 -153 -7 -16 -13 -33 -14 -37 -2 -5 -3 -9 -4 -10 -2 -2 -4 -14 -7 -27
-2 -14 -9 -30 -14 -36 -5 -6 -11 -20 -13 -31 -1 -10 -5 -23 -8 -29 -4 -5 -5
-18 -4 -27 2 -9 -3 -22 -11 -29 -8 -6 -14 -18 -14 -26 0 -8 -5 -11 -12 -7 -10
5 -10 4 -1 -6 9 -10 10 -17 2 -27 -16 -18 -1354 -19 -1365 -1 -4 6 -3 13 2 15
6 2 9 26 7 53 -3 30 0 50 7 50 5 0 10 5 10 12 0 6 -3 8 -6 5 -10 -9 -44 59
-44 87 0 14 -6 31 -13 38 -39 40 -59 82 -61 126 -1 26 -6 54 -11 61 -6 10 -4
12 5 6 10 -6 11 -4 4 6 -18 28 -32 79 -20 72 8 -5 8 -3 0 8 -7 8 -15 68 -18
133 -4 66 -9 122 -11 126 -8 13 -17 66 -20 120 -1 30 -4 56 -5 58 -1 1 -3 10
-4 20 0 11 -7 26 -14 35 -8 9 -16 42 -18 74 -3 32 -8 69 -11 83 -11 50 -11
150 1 143 6 -4 5 1 -3 11 -8 9 -15 35 -15 56 -1 21 -5 42 -9 46 -4 4 -3 12 3
19 5 6 11 29 12 51 2 23 8 41 15 41 7 0 11 -5 10 -10 -1 -5 6 -11 16 -12 17
-3 17 -2 4 13 -12 14 -23 51 -29 97 0 6 2 26 5 46 5 26 2 40 -8 49 -8 7 -15
23 -15 35 0 12 -7 28 -15 35 -8 7 -12 16 -9 21 3 5 0 8 -8 7 -8 -2 -13 6 -12
19 0 12 -3 20 -8 17 -4 -3 -8 5 -8 16 0 16 5 20 15 16 8 -3 14 -1 12 4 -1 6 9
16 23 23 15 7 25 21 25 34 0 12 4 25 9 30 5 4 6 3 2 -4 -3 -6 -1 -15 5 -19 7
-4 9 -3 5 4 -3 6 -1 16 6 24 7 7 15 31 16 53 2 22 7 44 11 48 8 8 -4 95 -13
104 -2 3 -12 6 -22 7 -10 2 -23 18 -30 39 -11 30 -10 38 2 48 12 9 20 9 39 -1
14 -7 25 -17 25 -22 0 -5 -4 -7 -9 -4 -5 4 -4 -5 2 -19 7 -14 18 -25 24 -25
16 0 -2 47 -26 70 -9 9 -17 22 -19 30 -2 8 -7 17 -11 20 -10 6 -8 61 2 77 4 6
2 13 -5 16 -10 3 -10 7 0 20 7 8 14 30 14 47 1 24 5 30 16 25 12 -4 11 -1 -3
15 -10 11 -14 20 -8 20 5 0 10 6 10 13 0 7 -11 13 -23 13 -16 0 -20 -3 -14
-11 7 -8 5 -12 -5 -12 -8 0 -15 5 -15 11 0 6 -4 5 -9 -3 -6 -9 -11 -10 -15 -2
-11 18 -43 13 -94 -14 -26 -14 -53 -25 -61 -25 -8 0 -11 -3 -8 -7 4 -3 -9 -17
-28 -30 -19 -13 -35 -30 -35 -38 0 -8 -7 -15 -16 -15 -8 0 -12 -5 -9 -11 4 -6
-2 -13 -14 -16 -12 -3 -21 -9 -21 -13 0 -18 -26 -17 -27 1 -1 10 2 19 6 19 4
0 8 7 8 15 0 13 -4 12 -21 -2 -13 -12 -17 -13 -10 -3 6 8 12 30 12 49 1 34 0
34 -11 10 -7 -13 -19 -24 -27 -24 -8 -1 -14 -6 -13 -12 1 -6 -4 -10 -11 -9
-21 3 -47 27 -40 37 5 9 -9 13 -34 10 -14 -2 -32 38 -25 57 3 7 0 18 -6 25 -6
8 -12 22 -14 33 -2 10 -10 33 -19 49 -49 95 -46 207 8 297 19 31 34 67 34 80
0 18 2 20 10 8 8 -13 11 -12 24 5 9 11 22 42 30 70 15 49 15 50 -10 76 -17 17
-22 29 -15 34 6 3 9 10 6 15 -3 4 5 6 17 2 13 -3 19 -1 15 5 -6 9 49 36 163
79 25 9 52 23 61 31 28 23 30 14 7 -27 -14 -25 -33 -43 -48 -47 -14 -3 -49
-17 -77 -30 -51 -24 -67 -46 -40 -56 9 -4 8 -8 -3 -16 -19 -13 -9 -14 25 -1
23 9 27 7 35 -16 11 -29 22 -25 60 20 36 42 55 76 70 121 15 45 34 78 69 115
13 14 41 50 62 80 21 30 53 72 70 93 l31 38 -39 -7 c-43 -7 -56 5 -48 45 3 17
-1 19 -41 17 -35 -2 -44 0 -39 12 3 7 5 18 5 23 0 5 6 9 14 9 8 0 17 4 20 9 3
4 -6 6 -19 3 -14 -2 -25 -8 -25 -13 0 -13 -44 -11 -57 2 -7 7 -12 3 -15 -15
-3 -16 0 -27 9 -30 9 -4 12 -1 7 7 -5 9 -4 9 6 0 15 -14 3 -36 -17 -29 -8 3
-12 2 -9 -3 5 -7 -42 -31 -59 -31 -2 0 3 17 11 38 7 20 13 46 14 57 0 11 7 28
15 39 8 10 26 56 41 102 15 46 30 81 34 79 4 -2 5 7 2 21 -8 43 19 114 60 157
21 22 38 45 38 51 0 6 8 16 19 23 10 6 21 21 24 33 3 12 3 20 0 17 -2 -3 -12
2 -22 11 -10 9 -34 32 -54 49 -44 40 -67 106 -76 218 l-6 80 -48 0 c-38 0 -47
3 -47 18 0 12 8 17 28 17 23 1 24 2 10 11 -44 25 6 179 75 235 39 31 39 44 1
44 -27 0 -60 15 -82 37 -20 19 -5 30 19 15 77 -48 88 -50 281 -54 l187 -3 24
32 24 33 19 -40 c15 -32 26 -41 54 -46 19 -3 49 -9 65 -14 17 -5 51 -11 78
-14 26 -3 51 -7 56 -10 4 -3 6 6 3 19 -2 14 2 33 9 42 12 15 12 16 -8 11 -37
-10 -15 19 32 41 50 24 59 34 50 61 -5 15 -15 20 -40 20 -36 0 -55 -20 -55
-58 0 -10 -10 -28 -23 -40 -24 -23 -40 -21 -30 4 3 8 0 20 -6 28 -8 10 -8 16
3 25 8 6 12 20 9 30 -3 10 0 22 6 25 6 4 11 18 11 32 0 14 7 27 17 31 9 4 25
15 35 25 25 25 45 23 73 -8z m-1750 -21 c19 -9 35 -20 35 -25 0 -5 -12 -2 -27
6 -66 36 -71 49 -8 19z m75 -45 c0 -6 -6 -5 -15 2 -8 7 -15 14 -15 16 0 2 7 1
15 -2 8 -4 15 -11 15 -16z m56 -19 c6 -5 13 -6 16 -3 3 2 8 -2 11 -11 4 -8 3
-15 -1 -15 -10 0 -72 39 -72 45 0 6 31 -5 46 -16z m2900 -4 c-3 -9 1 -18 8
-21 19 -7 29 -71 21 -128 -8 -53 -17 -56 -49 -21 -28 30 -38 96 -19 131 6 13
9 24 6 24 -3 0 0 7 7 15 16 20 34 19 26 0z m-1112 -13 c-2 -28 -5 -32 -16 -32
-7 0 -14 11 -14 24 -1 17 3 23 15 21 9 -1 16 -7 15 -13z m-1730 -18 c3 -8 2
-12 -4 -9 -6 3 -10 10 -10 16 0 14 7 11 14 -7z m3676 -23 c0 -5 -44 -12 -97
-16 -207 -15 -328 -47 -348 -92 -5 -13 -15 -23 -21 -23 -6 0 -18 -8 -25 -17
-13 -16 -12 -17 4 -4 16 13 16 9 -4 -40 -30 -77 -36 -97 -49 -162 -9 -46 -14
-56 -25 -47 -18 15 -11 67 19 143 14 35 26 76 26 90 0 45 64 99 145 125 116
36 375 66 375 43z m-863 -141 l34 -30 -30 -30 c-22 -22 -39 -30 -66 -30 -31 0
-67 11 -84 26 -8 7 83 93 98 93 7 1 29 -13 48 -29z m-2153 9 c-4 -8 1 -9 16
-4 17 6 21 4 14 -6 -5 -8 -9 -19 -10 -26 -1 -7 -12 -26 -24 -43 -12 -16 -19
-30 -16 -30 3 0 0 -14 -6 -31 -8 -23 -15 -29 -32 -27 -12 2 -20 9 -18 18 2 8
0 12 -4 8 -14 -15 -33 13 -25 35 5 12 6 29 3 37 -3 10 1 8 10 -4 13 -17 14
-16 12 13 -1 21 3 31 12 31 8 0 19 9 26 20 7 11 21 20 31 20 11 0 15 -5 11
-11z m1351 -9 c-8 -13 -71 -24 -87 -13 -9 5 2 10 32 14 25 3 49 7 53 7 5 1 6
-2 2 -8z m-1882 -65 c-3 -9 -8 -14 -10 -11 -3 3 -2 9 2 15 9 16 15 13 8 -4z
m2274 -57 c-3 -8 -6 -5 -6 6 -1 11 2 17 5 13 3 -3 4 -12 1 -19z m1203 -28 c0
-11 -76 -12 -145 -2 -47 7 -45 7 40 12 95 5 105 4 105 -10z m-1187 -20 c3 -11
2 -20 -3 -20 -4 0 -10 11 -12 25 -6 29 7 25 15 -5z m10 -50 c3 -11 1 -18 -4
-14 -5 3 -9 12 -9 20 0 20 7 17 13 -6z m627 -23 c0 -9 -12 -11 -40 -9 -56 6
-61 22 -6 22 31 0 46 -4 46 -13z m139 -88 c-16 -10 -39 0 -39 17 0 11 5 11 25
2 17 -8 22 -14 14 -19z m369 -16 c-15 -2 -42 -2 -60 0 -18 2 -6 4 27 4 33 0
48 -2 33 -4z m105 0 c-7 -2 -19 -2 -25 0 -7 3 -2 5 12 5 14 0 19 -2 13 -5z
m-3036 -25 c-3 -8 -6 -5 -6 6 -1 11 2 17 5 13 3 -3 4 -12 1 -19z m-387 -33 c0
-8 -5 -17 -12 -21 -7 -4 -8 -3 -4 5 4 6 2 19 -5 27 -10 12 -9 13 5 8 9 -3 16
-12 16 -19z m917 3 c-3 -8 -6 -5 -6 6 -1 11 2 17 5 13 3 -3 4 -12 1 -19z m128
3 c60 -27 69 -42 54 -86 -7 -19 -20 -35 -29 -36 -10 0 -11 -2 -2 -6 19 -8 14
-57 -11 -94 -71 -105 -149 -23 -132 138 4 37 11 76 16 86 12 22 53 22 104 -2z
m2055 -25 c0 -14 -4 -27 -9 -31 -6 -3 -8 -14 -6 -25 2 -11 0 -33 -5 -50 -6
-21 -5 -30 3 -30 7 0 63 -2 125 -4 l113 -5 -3 27 c-2 21 -11 30 -38 39 l-35
12 33 0 c29 1 32 4 32 30 0 38 9 41 108 32 18 -2 15 -51 -3 -52 -8 -1 -19 -2
-24 -3 -20 -2 -23 -16 -10 -38 8 -13 14 -39 13 -58 -1 -52 -5 -461 -5 -492 1
-18 8 -29 21 -33 25 -8 27 -45 3 -45 -10 0 -26 -14 -35 -31 -21 -37 -11 -63
27 -73 29 -7 36 -46 8 -46 -39 1 -138 26 -139 35 -1 29 -28 123 -38 135 -17
22 -55 42 -66 35 -6 -3 -7 1 -4 9 4 10 13 12 32 7 15 -4 34 -6 42 -6 8 1 30 3
48 3 24 2 32 7 32 21 0 10 -6 24 -14 30 -10 8 -13 23 -9 46 4 27 2 34 -16 40
-25 8 -18 25 10 25 10 0 20 6 21 13 9 74 16 251 11 283 -5 29 -7 31 -56 33
-29 1 -81 6 -117 10 -36 5 -66 7 -68 6 -12 -10 -18 -152 -7 -163 3 -3 -1 -12
-8 -20 -9 -13 -9 -14 1 -8 12 7 18 -22 13 -69 -3 -36 8 -63 31 -69 l23 -6 -22
-15 c-24 -17 -30 -44 -13 -61 8 -8 6 -15 -5 -24 -24 -20 -18 -38 20 -51 23 -9
35 -19 33 -29 -4 -17 -27 -21 -45 -7 -9 6 -13 5 -13 -3 0 -16 -11 -7 -14 12
-1 7 -6 20 -11 28 -11 18 -11 18 -19 220 -3 91 -9 227 -12 303 l-6 137 36 0
c32 0 36 -3 36 -24z m67 -12 c-3 -3 -12 -4 -19 -1 -8 3 -5 6 6 6 11 1 17 -2
13 -5z m106 -11 c-7 -2 -19 -2 -25 0 -7 3 -2 5 12 5 14 0 19 -2 13 -5z m-3347
-24 c3 -6 2 -15 -4 -21 -6 -6 -12 -6 -17 3 -5 8 -4 10 3 5 7 -4 12 -3 12 3 0
5 -6 12 -12 14 -10 4 -10 6 -1 6 6 1 15 -4 19 -10z m2240 -58 c-1 -27 -4 -47
-7 -45 -8 5 -8 94 1 94 4 0 6 -22 6 -49z m969 39 c-3 -5 -12 -10 -20 -10 -8 0
-17 5 -20 10 -4 6 5 10 20 10 15 0 24 -4 20 -10z m-131 -200 c3 -102 8 -205
11 -230 11 -117 13 -177 6 -194 -7 -19 -8 -19 -15 0 -9 21 -22 622 -14 614 3
-3 8 -88 12 -190z m206 70 c0 -5 -5 -10 -11 -10 -5 0 -7 5 -4 10 3 6 8 10 11
10 2 0 4 -4 4 -10z m90 -4 c0 -11 -19 -15 -25 -6 -3 5 1 10 9 10 9 0 16 -2 16
-4z m0 -96 c0 -5 -7 -10 -15 -10 -8 0 -15 5 -15 10 0 6 7 10 15 10 8 0 15 -4
15 -10z m-90 -70 c0 -5 -2 -10 -4 -10 -3 0 -8 5 -11 10 -3 6 -1 10 4 10 6 0
11 -4 11 -10z m80 0 c0 -5 -4 -10 -10 -10 -5 0 -10 5 -10 10 0 6 5 10 10 10 6
0 10 -4 10 -10z m-1143 -42 c1 -12 -5 -30 -13 -40 -9 -9 -13 -22 -9 -28 4 -6
0 -22 -9 -35 -9 -13 -16 -31 -16 -40 0 -16 -73 -159 -94 -185 -7 -8 -25 -36
-40 -62 -15 -27 -32 -48 -39 -48 -16 1 -54 30 -39 30 7 0 16 8 19 17 4 9 28
49 53 88 41 62 103 179 104 197 2 13 16 21 16 9 0 -7 5 -9 11 -5 6 3 9 15 6
25 -3 10 -1 22 4 25 5 3 16 21 24 40 16 40 20 42 22 12z m-2330 -13 c4 -4 3
-5 -4 -2 -6 4 -13 2 -15 -5 -3 -8 -6 -6 -10 4 -7 17 15 19 29 3z m140 -27 c-3
-8 -6 -5 -6 6 -1 11 2 17 5 13 3 -3 4 -12 1 -19z m3253 2 c0 -5 -4 -10 -10
-10 -5 0 -10 5 -10 10 0 6 5 10 10 10 6 0 10 -4 10 -10z m80 0 c0 -5 -4 -10
-10 -10 -5 0 -10 5 -10 10 0 6 5 10 10 10 6 0 10 -4 10 -10z m-3500 -3 c0 -2
-8 -11 -18 -20 -15 -14 -19 -15 -19 -2 0 8 4 12 8 9 4 -2 10 0 14 6 6 10 15
14 15 7z m130 -8 c0 -5 -4 -7 -10 -4 -11 7 -14 -18 -3 -29 4 -3 8 -12 9 -19 1
-7 9 -30 17 -52 l15 -40 -3 45 c-2 25 -4 45 -5 45 -1 0 -3 12 -4 28 -2 15 -1
25 1 23 3 -2 4 -7 4 -10 0 -3 6 -24 14 -46 9 -25 10 -38 4 -34 -8 4 -9 -1 -4
-16 7 -22 -6 -59 -33 -91 -10 -13 -21 -15 -47 -9 -19 4 -35 5 -35 2 0 -3 -16
11 -36 31 -21 20 -45 39 -55 42 -11 4 -19 16 -19 27 0 14 5 18 16 14 8 -3 13
-2 10 3 -3 4 8 20 24 35 17 14 30 23 30 20 0 -3 13 5 28 18 29 24 82 36 82 17z
m86 -25 c1 -9 0 -13 -4 -10 -3 4 -7 14 -8 22 -1 9 0 13 4 10 3 -4 7 -14 8 -22z
m1089 -3 c-9 -8 -36 -10 -30 -2 2 4 11 8 20 8 8 0 13 -3 10 -6z m-1100 -78
c-2 -39 4 -46 23 -31 12 9 12 7 -2 -9 -10 -13 -23 -20 -27 -17 -5 3 -10 -7
-10 -23 l-2 -28 -5 30 c-5 29 -5 29 -11 6 -4 -14 -12 -26 -19 -27 -7 -1 -8 0
-2 3 5 2 10 13 10 23 0 9 7 23 15 30 8 7 12 17 8 23 -4 6 -1 7 7 2 10 -6 12
-4 7 9 -4 10 -5 22 -1 27 8 14 10 11 9 -18z m2441 -39 c-12 -27 -22 -40 -24
-31 -4 18 25 77 37 77 5 0 -1 -21 -13 -46z m804 -20 c0 -2 -18 -4 -40 -4 -22
0 -40 3 -40 8 0 4 18 6 40 4 22 -2 40 -6 40 -8z m-460 -64 c0 -5 -4 -10 -10
-10 -5 0 -10 5 -10 10 0 6 5 10 10 10 6 0 10 -4 10 -10z m-3049 -25 c25 -9 88
-17 151 -19 118 -3 134 -10 165 -70 13 -25 14 -60 8 -220 -7 -199 -23 -336
-54 -471 -31 -129 -44 -254 -40 -373 l4 -112 -30 -10 c-16 -5 -41 -11 -55 -14
-14 -2 -56 -11 -93 -21 -38 -9 -80 -15 -93 -12 -13 2 -27 0 -30 -5 -3 -4 -9
-6 -14 -3 -5 3 -11 1 -14 -4 -4 -5 -19 -7 -34 -4 -15 3 -38 6 -52 7 -16 1 -24
7 -22 16 3 11 0 11 -12 0 -13 -10 -19 -10 -32 1 -9 7 -30 12 -46 10 -19 -2
-28 1 -24 8 4 6 -9 4 -28 -4 -41 -17 -50 -9 -31 28 8 15 11 27 8 27 -3 0 0 7
7 15 7 8 16 12 21 9 5 -3 9 4 9 15 0 11 5 32 12 48 6 15 11 31 10 35 -1 5 3 7
10 5 6 -1 14 6 16 15 2 14 -1 16 -14 11 -10 -3 -15 -2 -12 3 4 5 -5 10 -18 10
-18 2 -24 -3 -25 -20 0 -13 -2 -16 -5 -6 -7 19 -45 100 -48 100 -1 0 -3 -11
-4 -25 -1 -14 2 -24 6 -24 19 3 23 -2 13 -15 -19 -22 -51 9 -44 43 2 14 2 23
-2 20 -12 -13 -14 -53 -3 -60 7 -5 9 -11 5 -15 -4 -4 -18 3 -31 15 -23 22 -31
12 -13 -16 4 -6 3 -14 -3 -18 -6 -4 -8 -11 -5 -16 4 -5 1 -17 -4 -26 -13 -23
-15 470 -2 495 16 29 41 90 41 97 0 4 28 64 61 132 43 87 66 123 78 122 42 -4
50 2 57 39 4 20 15 61 26 90 11 28 17 60 15 70 -3 12 -5 11 -6 -6 0 -13 -8
-36 -16 -53 -21 -39 -118 -139 -136 -139 -19 0 -105 -88 -118 -120 -7 -18 -10
11 -10 113 -1 136 -1 137 22 137 37 1 100 35 142 79 24 26 48 41 63 41 20 0
22 3 13 14 -9 11 -9 16 1 22 40 25 197 30 259 9z m-328 -48 c-12 -16 -25 -22
-43 -20 -22 3 -23 2 -5 -6 16 -8 16 -10 4 -10 -9 -1 -24 -11 -33 -23 -9 -13
-14 -17 -11 -10 8 16 -5 15 -28 -3 -11 -7 -25 -11 -32 -9 -7 3 -15 -3 -18 -13
-3 -10 -5 3 -6 28 l-1 47 63 12 c35 6 70 16 78 21 8 5 22 9 32 9 17 0 17 -1 0
-23z m4027 -7 c0 -5 -4 -10 -10 -10 -5 0 -10 5 -10 10 0 6 5 10 10 10 6 0 10
-4 10 -10z m-390 -78 c5 -21 15 -106 20 -188 6 -82 19 -185 30 -229 29 -124
80 -405 74 -405 -20 0 -69 222 -109 490 -2 14 -7 52 -11 85 -3 33 -8 69 -10
80 -8 42 -17 205 -11 205 4 0 11 -17 17 -38z m317 -38 c-3 -3 -12 -4 -19 -1
-8 3 -5 6 6 6 11 1 17 -2 13 -5z m65 -31 c-2 -16 -9 -33 -14 -40 -15 -18 -38
-4 -38 24 0 18 4 24 15 20 8 -4 17 -2 20 3 3 5 -5 11 -17 13 -18 3 -16 5 8 6
29 1 31 -1 26 -26z m-1402 -3 c11 -8 7 -9 -15 -4 -37 8 -45 14 -19 14 10 0 26
-5 34 -10z m1298 -12 c-6 -18 -28 -21 -28 -4 0 9 7 16 16 16 9 0 14 -5 12 -12z
m-2843 -67 c1 -23 -2 -28 -12 -19 -9 7 -10 15 -2 29 13 25 14 24 14 -10z
m1229 -2 c-3 -5 -10 -7 -15 -3 -5 3 -7 10 -3 15 3 5 10 7 15 3 5 -3 7 -10 3
-15z m1623 -3 c95 -6 103 -11 103 -56 0 -33 -3 -38 -17 -34 -17 5 -17 5 0 -6
15 -10 16 -23 12 -103 -4 -65 -9 -95 -20 -103 -8 -6 -14 -13 -12 -15 1 -2 -4
2 -10 10 -7 8 -13 37 -13 64 0 26 -4 46 -8 43 -11 -7 -94 14 -107 27 -9 9 40
6 85 -4 12 -3 16 8 18 48 l3 51 -57 12 c-65 14 -74 8 -74 -52 0 -43 -17 -59
-37 -33 -17 24 -17 53 2 89 l15 28 -25 -16 c-27 -18 -32 -8 -14 25 12 24 46
38 74 33 11 -3 48 -6 82 -8z m-3185 -378 c-8 -8 -9 -4 -5 13 4 13 8 18 11 10
2 -7 -1 -18 -6 -23z m3272 -156 c2 -4 1 -14 -3 -21 -7 -10 -12 -10 -30 0 -11
8 -21 17 -21 21 0 11 47 10 54 0z m-177 -44 c-3 -8 -6 -5 -6 6 -1 11 2 17 5
13 3 -3 4 -12 1 -19z m-1417 -83 c0 -2 -6 -8 -13 -14 -10 -8 -14 -7 -14 2 0 8
6 14 14 14 7 0 13 -1 13 -2z m-40 -39 c0 -2 -8 -10 -17 -17 -16 -13 -17 -12
-4 4 13 16 21 21 21 13z m-2510 -122 c0 -8 -5 -12 -10 -9 -6 4 -8 11 -5 16 9
14 15 11 15 -7z m4093 -134 c23 -6 48 -13 55 -15 9 -3 12 -89 12 -382 -1 -333
-2 -375 -15 -353 -8 14 -15 21 -15 15 -1 -11 -23 24 -26 40 -1 6 -12 40 -24
78 -12 37 -23 74 -24 82 -1 8 -5 18 -9 21 -4 4 -7 18 -7 31 0 17 4 22 13 17 8
-5 8 -2 -2 9 -7 9 -10 17 -6 17 4 0 1 8 -6 18 -13 16 -13 16 6 0 11 -9 24 -17
30 -17 12 0 24 -33 17 -46 -3 -7 -1 -7 6 0 7 7 4 43 -9 119 -10 60 -25 168
-33 240 -8 72 -15 136 -16 141 -4 18 2 30 7 13 3 -11 21 -22 46 -28z m-2693
15 c0 -2 -6 -5 -13 -8 -8 -3 -14 1 -14 8 0 7 6 11 14 8 7 -3 13 -6 13 -8z
m-473 -101 c-3 -3 -12 -4 -19 -1 -8 3 -5 6 6 6 11 1 17 -2 13 -5z m74 -11 c13
-16 12 -17 -3 -4 -17 13 -22 21 -14 21 2 0 10 -8 17 -17z m-933 -29 c10 -7
-11 -64 -24 -64 -8 0 -14 -8 -14 -17 0 -11 -3 -14 -8 -8 -4 6 -16 11 -27 10
-17 0 -21 -9 -26 -55 -4 -43 -6 -32 -7 51 l-2 106 53 -10 c28 -5 54 -11 55
-13z m921 -13 c-2 -6 -10 2 -17 17 -11 25 -11 25 4 10 9 -9 15 -21 13 -27z
m-24 -20 c-8 -25 -30 -28 -39 -5 -3 8 -2 12 4 9 5 -3 15 1 22 9 17 18 22 13
13 -13z m-720 -21 c3 6 11 8 16 4 5 -3 7 -10 3 -15 -3 -5 -9 -7 -14 -4 -5 3
-11 1 -15 -5 -4 -6 -11 -7 -17 -4 -6 4 -8 2 -5 -3 4 -6 0 -16 -8 -23 -8 -7
-15 -9 -15 -5 0 4 -7 2 -16 -5 -12 -11 -15 -11 -12 1 2 8 -3 13 -11 11 -12 -3
-12 -1 0 14 9 12 9 15 2 10 -8 -4 -13 -2 -13 6 0 8 13 15 32 16 18 2 34 5 37
7 2 3 10 0 17 -6 8 -7 14 -7 19 1z m65 -6 c0 -8 -19 -13 -24 -6 -3 5 1 9 9 9
8 0 15 -2 15 -3z m-184 -26 c1 -8 -4 -15 -12 -15 -7 0 -13 3 -12 6 2 20 -4 22
-20 8 -15 -14 -19 -15 -19 -2 0 8 4 12 8 9 4 -2 10 0 13 5 9 14 39 6 42 -11z
m-159 -130 c-3 -8 -6 -5 -6 6 -1 11 2 17 5 13 3 -3 4 -12 1 -19z m1398 -208
c-3 -5 -12 -10 -18 -10 -7 0 -6 4 3 10 19 12 23 12 15 0z m-1355 -30 c0 -5 -4
-10 -10 -10 -5 0 -10 5 -10 10 0 6 5 10 10 10 6 0 10 -4 10 -10z m1340 -125
c0 -12 -19 -12 -23 0 -4 9 -1 12 9 8 7 -3 14 -7 14 -8z m-938 -16 c22 -12 23
-28 1 -76 -21 -46 -52 -83 -69 -83 -24 0 -26 21 -3 39 12 10 23 30 23 44 1 19
-2 23 -10 16 -8 -7 -14 -6 -19 1 -12 20 -73 10 -136 -23 -72 -38 -170 -94
-211 -121 -28 -18 -28 -18 -28 3 0 11 4 21 10 21 5 0 27 16 49 35 21 19 43 35
49 35 6 0 26 13 44 28 18 16 55 46 83 67 l50 37 74 -6 c41 -4 83 -12 93 -17z
m2658 -126 c-61 -87 -135 -163 -128 -133 2 8 -3 14 -11 15 -19 0 -22 31 -5 46
8 6 14 17 14 23 0 21 68 72 88 67 1 -1 19 8 39 19 21 11 39 20 41 20 2 0 -15
-26 -38 -57z m893 -46 c24 -24 78 -65 120 -91 l77 -48 0 -55 0 -54 -42 23
c-47 26 -151 118 -143 126 3 3 -1 12 -9 21 -8 9 -15 18 -14 21 0 20 -17 68
-30 83 -29 33 -3 16 41 -26z m-3695 -4 c-4 -24 -74 -61 -102 -56 -16 3 -29 -3
-42 -20 -24 -30 -68 -53 -123 -66 -58 -13 -54 8 7 36 26 13 54 27 62 32 35 22
176 90 188 90 8 1 12 -7 10 -16z m2600 -63 c7 -12 17 -18 22 -15 6 3 10 4 10
1 0 -16 -20 -12 -40 9 -13 14 -19 25 -14 25 5 0 15 -9 22 -20z m1100 -156 c18
-12 22 -24 22 -61 0 -39 5 -51 27 -69 27 -21 27 -21 15 -85 -7 -35 -15 -80
-18 -99 -2 -19 -8 -44 -11 -55 -4 -11 -8 -26 -9 -33 -3 -19 -25 -152 -29 -177
-5 -38 -17 -110 -21 -130 -3 -11 -7 -45 -10 -75 -3 -30 -7 -62 -10 -70 -3 -8
-7 -33 -10 -55 -3 -22 -11 -74 -19 -115 -7 -41 -23 -138 -36 -215 -12 -77 -27
-143 -33 -147 -16 -11 -168 -10 -161 1 3 6 8 49 10 98 7 112 15 185 22 196 3
5 7 28 9 51 5 56 12 111 14 111 1 0 4 14 6 30 1 17 8 55 14 85 6 30 13 69 16
85 6 29 20 95 50 225 21 96 67 327 79 405 2 16 -1 44 -7 62 -22 59 25 79 90
37z m-288 -334 c1 8 6 4 11 -9 21 -52 -14 -172 -45 -154 -6 3 -8 3 -4 -2 4 -4
3 -15 -1 -24 -5 -9 -12 -34 -16 -56 -11 -63 -11 -64 -18 -71 -3 -4 -4 4 -2 17
2 13 11 71 20 129 20 130 35 186 47 168 6 -10 8 -10 8 2z m-3702 -111 c4 -1
23 -2 42 -3 19 -1 62 -12 95 -23 33 -12 87 -24 120 -28 33 -4 74 -9 90 -12 17
-2 39 -6 50 -8 104 -14 168 -44 187 -87 7 -15 16 -24 20 -22 4 3 5 -1 2 -9 -2
-7 0 -27 7 -43 6 -16 12 -46 13 -66 0 -20 4 -40 8 -44 4 -3 6 3 3 14 -2 12 0
24 4 26 4 3 6 -16 6 -42 -1 -26 2 -52 7 -59 6 -7 4 -14 -3 -19 -8 -5 -9 -3 -4
6 6 9 4 11 -5 5 -9 -6 -11 -4 -5 5 5 9 4 11 -4 6 -8 -6 -9 -12 -2 -20 6 -7 7
-16 3 -20 -4 -4 0 -6 8 -4 11 2 14 -4 12 -21 -3 -16 0 -21 9 -16 8 6 10 4 3
-6 -10 -16 -10 -20 -12 -77 -1 -24 -6 -41 -10 -38 -5 3 -9 -1 -9 -9 0 -8 5
-12 10 -8 5 3 6 -2 0 -13 -10 -23 -10 -45 0 -61 4 -6 3 -15 -3 -18 -8 -5 -7
-12 2 -23 9 -11 10 -14 1 -8 -9 5 -12 -3 -10 -28 2 -20 6 -39 10 -42 4 -4 2
-13 -4 -20 -7 -8 -7 -14 1 -19 5 -3 10 -17 10 -31 0 -14 -4 -23 -9 -20 -11 7
-9 -13 2 -31 6 -10 -27 -13 -156 -13 -136 0 -176 3 -229 20 -117 36 -192 102
-246 218 l-27 57 -1 350 c-1 193 0 340 3 328 2 -13 7 -23 11 -24z m4134 -661
c2 -73 1 -79 -27 -108 -16 -16 -25 -30 -21 -30 4 0 4 -5 0 -11 -4 -7 -10 -7
-16 -1 -10 10 3 132 24 210 17 66 37 36 40 -60z m-4395 50 c-3 -8 -6 -5 -6 6
-1 11 2 17 5 13 3 -3 4 -12 1 -19z m4294 -45 c1 -7 2 -20 2 -28 0 -8 -1 -31
-2 -52 -1 -34 -2 -35 -19 -20 -17 15 -18 26 -13 103 1 15 31 13 32 -3z m-4284
-15 c-3 -8 -6 -5 -6 6 -1 11 2 17 5 13 3 -3 4 -12 1 -19z m31 -93 c0 -5 -6 4
-13 20 -8 17 -14 37 -14 45 0 8 7 -1 14 -20 7 -19 13 -39 13 -45z m129 -196
c88 -95 195 -159 323 -196 62 -17 148 -18 1860 -18 987 0 1775 -3 1750 -7 -25
-3 -822 -7 -1772 -7 -1860 -1 -1805 -3 -1930 50 -126 53 -248 161 -319 279
-21 37 -39 70 -39 76 0 5 16 -19 36 -54 19 -34 61 -90 91 -123z m4363 18 c0
-1 -24 -25 -52 -52 l-53 -50 50 53 c46 48 55 57 55 49z m-118 -109 c-6 -7 -25
-22 -44 -32 -39 -23 -32 -13 14 20 38 26 45 29 30 12z m-96 -63 c-11 -8 -25
-15 -30 -15 -6 1 0 7 14 15 32 19 40 18 16 0z m-75 -31 c-18 -8 -47 -17 -65
-20 -18 -3 -8 3 24 15 65 23 89 25 41 5z"/>
<path d="M5309 11286 c-1 -3 -2 -12 -3 -18 -1 -7 -6 -12 -12 -11 -5 1 -10 -9
-10 -22 0 -13 4 -21 8 -19 5 3 5 11 2 17 -4 7 -3 8 2 4 5 -5 10 -13 10 -18 3
-20 5 -21 17 -10 10 8 14 7 14 -3 0 -8 -10 -12 -28 -11 -25 2 -34 -13 -17 -31
4 -3 4 -12 1 -20 -7 -19 11 -18 27 1 7 8 17 12 23 8 5 -3 7 -1 3 5 -3 6 -2 14
4 17 7 4 7 11 2 18 -5 7 -8 20 -7 29 2 9 -3 22 -11 29 -8 6 -12 15 -9 19 3 5
1 11 -5 15 -5 3 -11 4 -11 1z m41 -101 c0 -1 -12 -12 -27 -26 -14 -13 -23 -19
-19 -12 3 6 2 14 -4 18 -16 10 -4 21 24 21 14 0 26 -1 26 -1z"/>
<path d="M5306 11168 c3 -5 10 -6 15 -3 13 9 11 12 -6 12 -8 0 -12 -4 -9 -9z"/>
<path d="M4407 10988 c32 -36 37 -49 16 -42 -12 4 -9 -2 10 -20 15 -14 27 -28
27 -32 0 -10 52 -48 68 -51 8 -1 19 -8 23 -15 5 -7 9 -10 9 -5 0 4 9 -2 21
-14 11 -11 37 -28 57 -36 21 -8 45 -22 55 -31 15 -14 17 -13 17 3 0 10 -2 16
-5 13 -3 -3 -45 33 -92 79 -48 46 -99 91 -114 100 -15 9 -30 25 -32 35 -3 10
-14 18 -26 18 -12 0 -21 5 -21 10 0 6 -8 10 -17 10 -14 0 -14 -3 4 -22z"/>
<path d="M3452 10744 c-44 -47 -52 -61 -52 -94 0 -30 3 -38 14 -34 8 3 24 -4
35 -15 12 -12 28 -21 36 -21 8 0 15 -4 15 -10 0 -5 -5 -10 -11 -10 -5 0 -7 -5
-3 -11 5 -8 9 -7 14 1 9 15 40 6 40 -11 0 -8 -4 -8 -15 1 -13 11 -14 10 -9 -4
3 -9 11 -16 16 -16 6 0 17 -8 25 -17 14 -17 14 -17 10 3 -2 12 1 21 8 21 7 0
11 -6 8 -14 -3 -7 1 -21 8 -31 13 -15 12 -16 -3 -4 -12 9 -18 10 -23 2 -5 -8
-13 -6 -26 6 -10 9 -19 13 -19 9 0 -5 -10 1 -23 13 -13 12 -27 19 -32 15 -4
-5 -5 -2 -1 5 7 12 -6 21 -36 26 -7 1 -20 6 -28 11 -17 11 -31 15 -78 22 -27
4 -33 9 -29 24 3 11 0 19 -6 19 -7 1 -23 10 -36 21 -19 15 -22 22 -12 28 10 7
10 12 0 30 -15 23 -25 26 -34 11 -3 -5 0 -10 8 -10 7 0 14 -7 14 -15 0 -17
-23 -20 -32 -5 -4 6 -12 4 -21 -5 -9 -8 -20 -13 -25 -10 -12 8 -12 -47 0 -78
6 -14 7 -28 3 -31 -13 -14 -9 -34 6 -32 24 4 70 -95 78 -167 4 -31 11 -60 17
-64 6 -4 7 -1 2 7 -4 7 -9 68 -10 136 -1 93 1 121 10 114 7 -5 14 -7 18 -4 3
3 4 -2 2 -13 -1 -10 5 -27 14 -37 9 -11 11 -16 4 -13 -16 10 -10 -20 7 -36 11
-10 11 -8 0 8 -15 20 -14 20 8 1 12 -11 20 -21 17 -24 -3 -3 1 -12 8 -20 10
-13 9 -14 -3 -7 -12 7 -13 6 -4 -6 5 -8 11 -30 13 -49 3 -42 20 -100 34 -118
8 -11 12 -11 18 0 6 9 9 7 9 -7 1 -19 1 -19 11 -2 8 14 14 15 24 7 16 -13 23
-3 20 28 -1 12 2 22 7 22 4 0 11 0 16 0 4 0 8 -8 8 -17 3 -38 17 -64 31 -59 8
4 13 0 11 -9 -2 -7 2 -13 7 -12 6 1 9 6 7 11 -2 5 3 4 11 -2 11 -9 18 -8 31 6
9 10 14 21 11 24 -8 8 39 3 53 -5 6 -5 12 -18 12 -31 0 -28 25 -30 28 -2 5 67
9 103 15 121 8 24 52 51 128 79 31 12 56 26 55 31 0 6 -4 9 -7 8 -3 -1 -6 4
-6 12 0 8 4 12 9 9 19 -12 6 9 -20 31 -31 26 -39 56 -13 48 12 -3 11 -2 -2 7
-9 6 -14 16 -11 22 4 6 1 9 -7 6 -8 -3 -22 4 -31 15 -16 17 -18 18 -18 3 0
-14 -2 -15 -14 -4 -8 7 -10 15 -5 16 11 4 12 23 2 20 -5 -2 -8 0 -8 3 0 13
-38 48 -46 44 -4 -3 -11 0 -15 6 -4 8 -9 7 -15 -2 -7 -12 -9 -12 -9 0 0 10 -3
11 -14 2 -10 -8 -16 -9 -21 -1 -8 13 -25 13 -25 -1 0 -5 6 -7 13 -3 7 4 9 3 4
-2 -5 -5 -12 -9 -15 -9 -4 0 -13 -4 -19 -8 -7 -5 -13 -5 -13 -1 0 4 -8 0 -17
-8 -34 -27 -66 -5 -41 28 12 16 -14 35 -32 24 -11 -7 -12 -10 -2 -10 7 0 10
-5 7 -10 -5 -8 -11 -8 -19 -1 -7 6 -16 8 -19 4 -4 -3 -7 1 -7 11 0 9 5 14 10
11 6 -3 10 -1 10 6 0 7 3 9 7 6 3 -4 12 1 19 11 9 13 10 20 1 32 -10 13 -10
13 5 1 10 -7 15 -17 13 -22 -3 -4 4 -13 16 -19 11 -7 21 -10 22 -8 1 2 7 13
14 24 13 24 2 39 -43 62 -18 10 -27 4 -72 -44z m-15 -49 c-4 -8 -2 -17 4 -20
5 -4 6 -12 2 -18 -4 -8 -1 -7 9 1 12 9 18 10 23 2 5 -8 11 -8 21 1 7 6 11 16
7 22 -3 6 -1 7 6 3 8 -5 5 -15 -9 -34 -24 -30 -46 -36 -54 -15 -5 13 -9 13
-24 2 -15 -13 -16 -12 -4 3 9 11 9 18 3 23 -7 4 -7 12 2 25 14 24 21 26 14 5z
m211 -256 c3 -12 2 -12 -6 0 -7 9 -12 10 -16 2 -4 -6 -12 -9 -17 -5 -5 3 -7 9
-4 14 8 13 38 5 43 -11z m49 -15 c0 -19 -45 -30 -60 -15 -8 8 -7 11 6 11 9 0
17 4 17 8 0 4 8 8 18 9 10 1 19 -5 19 -13z"/>
<path d="M3160 10756 c0 -2 7 -7 16 -10 8 -3 12 -2 9 4 -6 10 -25 14 -25 6z"/>
<path d="M4720 10725 c0 -13 44 -54 52 -49 5 4 -1 17 -13 30 -21 22 -39 31
-39 19z"/>
<path d="M3346 10683 c-3 -3 -6 -16 -6 -28 0 -33 46 -29 47 5 2 25 2 25 -8 2
-7 -19 -29 -23 -29 -6 0 3 5 2 10 -1 6 -3 10 1 10 9 0 17 -14 29 -24 19z"/>
<path d="M3560 10659 c0 -6 -4 -8 -9 -5 -5 3 -15 -2 -22 -12 -13 -15 -12 -16
4 -3 9 7 17 10 17 6 0 -4 6 -2 13 4 8 6 16 8 19 5 3 -3 8 -1 11 3 3 5 -3 10
-14 10 -10 1 -19 -3 -19 -8z"/>
<path d="M4965 10510 c10 -11 20 -20 23 -20 3 0 -3 9 -13 20 -10 11 -20 20
-23 20 -3 0 3 -9 13 -20z"/>
<path d="M3857 10498 c19 -21 31 -25 14 -5 -6 8 -9 16 -6 19 3 2 -2 5 -10 5
-13 0 -13 -3 2 -19z"/>
<path d="M3133 10489 c-1 -10 2 -19 8 -19 11 0 12 27 1 34 -4 2 -9 -4 -9 -15z"/>
<path d="M3903 10473 c-3 -10 -8 -21 -10 -26 -3 -4 1 -6 9 -5 7 2 12 -3 10
-10 -1 -8 2 -11 8 -7 6 3 8 10 5 15 -3 4 -2 10 2 13 5 2 2 2 -6 0 -9 -2 -12 3
-8 17 6 25 -1 27 -10 3z"/>
<path d="M4589 10046 c-1 -3 -3 -10 -4 -16 -1 -5 -3 -13 -4 -16 0 -4 -8 -1
-16 6 -13 11 -14 10 -9 -4 3 -9 11 -16 18 -16 16 0 38 38 26 45 -6 3 -11 4
-11 1z"/>
<path d="M3450 9781 c8 -4 44 -14 80 -21 78 -14 98 -24 110 -53 8 -21 9 -20 9
6 1 15 1 30 1 34 0 4 -5 8 -12 9 -7 1 -46 9 -86 18 -82 18 -127 21 -102 7z"/>
<path d="M3640 9643 c0 -4 5 -15 10 -23 8 -13 10 -13 10 2 0 9 -4 20 -10 23
-5 3 -10 3 -10 -2z"/>
<path d="M3661 9564 c0 -11 3 -14 6 -6 3 7 2 16 -1 19 -3 4 -6 -2 -5 -13z"/>
<path d="M3671 9469 c0 -13 4 -33 9 -44 7 -14 8 -8 3 20 -7 46 -13 59 -12 24z"/>
<path d="M3680 9366 c0 -8 5 -18 10 -21 6 -3 10 1 10 9 0 8 -4 18 -10 21 -5 3
-10 -1 -10 -9z"/>
<path d="M3709 9223 c-3 -18 3 -59 10 -65 3 -4 5 10 3 32 -4 36 -10 52 -13 33z"/>
<path d="M3724 9075 c-3 -8 1 -40 9 -72 l16 -58 0 48 c1 26 -4 47 -9 47 -6 0
-8 11 -4 25 7 27 -3 35 -12 10z"/>
<path d="M6007 9013 c-18 -4 -17 -6 4 -29 27 -28 36 -30 61 -8 17 16 17 18 0
30 -17 14 -33 15 -65 7z"/>
<path d="M3750 8904 c0 -14 4 -23 9 -20 5 3 7 15 4 26 -7 28 -13 25 -13 -6z"/>
<path d="M3761 8844 c0 -11 3 -14 6 -6 3 7 2 16 -1 19 -3 4 -6 -2 -5 -13z"/>
<path d="M5440 8539 c0 -5 5 -7 10 -4 6 3 10 8 10 11 0 2 -4 4 -10 4 -5 0 -10
-5 -10 -11z"/>
<path d="M5398 8533 c6 -2 18 -2 25 0 6 3 1 5 -13 5 -14 0 -19 -2 -12 -5z"/>
<path d="M5550 8516 c0 -4 13 -12 30 -17 16 -6 27 -15 24 -20 -7 -12 -6 -12
119 7 121 19 148 40 35 29 -39 -4 -84 -11 -99 -15 -15 -5 -29 -5 -31 0 -4 10
-78 25 -78 16z"/>
<path d="M5538 8463 c6 -2 18 -2 25 0 6 3 1 5 -13 5 -14 0 -19 -2 -12 -5z"/>
<path d="M5430 8450 c-20 -6 -21 -8 -5 -8 11 -1 38 3 60 7 l40 9 -35 0 c-19 0
-46 -4 -60 -8z"/>
<path d="M5270 8425 c-41 -8 -92 -12 -112 -8 -31 5 -38 3 -38 -12 0 -13 6 -15
28 -11 15 3 74 13 132 22 58 9 107 18 109 20 8 7 -44 2 -119 -11z"/>
<path d="M5983 8423 c9 -2 23 -2 30 0 6 3 -1 5 -18 5 -16 0 -22 -2 -12 -5z"/>
<path d="M5908 8413 c7 -3 16 -2 19 1 4 3 -2 6 -13 5 -11 0 -14 -3 -6 -6z"/>
<path d="M5031 8396 c-28 -10 -31 -14 -17 -19 24 -9 63 1 70 19 6 17 -7 17
-53 0z"/>
<path d="M5813 8403 c9 -2 25 -2 35 0 9 3 1 5 -18 5 -19 0 -27 -2 -17 -5z"/>
<path d="M5748 8393 c7 -3 16 -2 19 1 4 3 -2 6 -13 5 -11 0 -14 -3 -6 -6z"/>
<path d="M5678 8383 c6 -2 18 -2 25 0 6 3 1 5 -13 5 -14 0 -19 -2 -12 -5z"/>
<path d="M4865 8366 c-27 -8 -36 -14 -27 -20 18 -11 69 2 76 20 6 16 4 16 -49
0z"/>
<path d="M5535 8369 c-33 -5 -64 -11 -70 -13 -22 -9 54 -4 120 8 78 15 43 18
-50 5z"/>
<path d="M5410 8350 c-19 -4 -75 -13 -123 -20 -48 -7 -86 -14 -83 -17 5 -5
238 27 245 33 10 9 -6 10 -39 4z"/>
<path d="M5153 8303 c9 -2 23 -2 30 0 6 3 -1 5 -18 5 -16 0 -22 -2 -12 -5z"/>
<path d="M5088 8293 c7 -3 16 -2 19 1 4 3 -2 6 -13 5 -11 0 -14 -3 -6 -6z"/>
<path d="M4907 7818 c21 -36 36 -39 41 -7 4 24 -12 39 -41 39 -18 0 -18 -1 0
-32z"/>
<path d="M2250 7902 c0 -6 10 -14 23 -17 44 -14 286 -136 314 -158 15 -13 60
-41 98 -62 39 -21 89 -53 112 -72 49 -39 55 -40 69 -8 9 19 9 27 -2 36 -8 6
-14 21 -14 34 0 35 -32 57 -72 50 -26 -5 -38 -2 -52 14 -11 12 -25 21 -33 21
-8 0 -58 18 -111 39 -97 40 -136 54 -247 93 -33 11 -66 25 -72 31 -9 6 -13 6
-13 -1z"/>
<path d="M2755 7760 c-22 -3 -35 -8 -30 -11 12 -7 142 -23 135 -16 -21 19 -71
32 -105 27z"/>
<path d="M2898 7723 c6 -2 18 -2 25 0 6 3 1 5 -13 5 -14 0 -19 -2 -12 -5z"/>
<path d="M2973 7685 c-3 -9 -3 -18 -1 -21 3 -3 8 4 11 16 6 23 -1 27 -10 5z"/>
<path d="M2955 7630 c-5 -8 -11 -26 -13 -39 -2 -14 -7 -32 -13 -42 -12 -22
-12 -39 0 -39 5 0 12 19 16 43 4 23 12 47 17 54 5 7 8 18 6 25 -3 9 -7 8 -13
-2z"/>
<path d="M2744 7571 c8 -13 77 -44 83 -37 3 2 -13 12 -34 22 -21 9 -42 20 -47
22 -5 3 -6 0 -2 -7z"/>
<path d="M2921 7484 c0 -11 3 -14 6 -6 3 7 2 16 -1 19 -3 4 -6 -2 -5 -13z"/>
<path d="M2140 7112 c-14 -2 -29 -7 -33 -11 -4 -4 20 -4 54 1 35 4 65 10 67
13 5 5 -47 3 -88 -3z"/>
<path d="M2565 7079 c-4 -6 -4 -13 -1 -16 3 -4 6 -1 6 6 0 7 5 9 12 5 7 -4 8
-3 4 4 -9 15 -13 15 -21 1z"/>
<path d="M1978 7073 c6 -2 18 -2 25 0 6 3 1 5 -13 5 -14 0 -19 -2 -12 -5z"/>
<path d="M2220 6970 c0 -5 5 -10 11 -10 5 0 7 5 4 10 -3 6 -8 10 -11 10 -2 0
-4 -4 -4 -10z"/>
<path d="M2257 6952 c5 -11 1 -13 -18 -8 l-24 7 25 -21 c19 -16 20 -19 5 -11
-16 7 -27 5 -45 -10 -20 -16 -21 -18 -5 -12 19 6 19 5 4 -13 -9 -10 -20 -29
-24 -42 -3 -13 -11 -19 -17 -16 -8 5 -9 1 -5 -10 5 -14 3 -17 -8 -12 -9 3 -15
0 -15 -10 0 -8 -4 -13 -9 -9 -5 3 -12 -4 -16 -15 -4 -11 -11 -17 -17 -14 -7 4
-8 2 -4 -5 4 -6 0 -14 -8 -17 -9 -3 -16 -10 -16 -16 0 -5 6 -6 13 -2 8 5 8 3
-2 -9 -7 -9 -17 -14 -22 -11 -18 11 -8 -8 14 -28 12 -11 16 -17 10 -13 -9 4
-13 -1 -13 -14 0 -12 -5 -21 -11 -21 -5 0 -7 -4 -4 -10 9 -14 45 -12 45 3 0 9
2 9 8 0 8 -13 58 -8 78 8 11 9 39 -12 29 -23 -3 -2 2 -5 10 -5 8 0 11 5 7 11
-13 21 -10 36 8 36 13 0 17 -6 14 -22 -4 -21 -4 -21 5 -3 4 11 7 23 4 28 -2 4
3 14 11 22 14 14 17 13 32 -10 9 -13 14 -32 10 -40 -3 -8 -1 -15 5 -15 11 0 7
59 -6 79 -5 9 -4 12 3 7 7 -4 9 5 5 30 -5 29 -3 35 7 29 8 -5 11 -4 6 3 -10
17 -14 72 -5 77 11 7 4 32 -19 77 -11 21 -23 34 -27 30 -4 -4 -6 2 -3 14 3 13
0 21 -7 21 -7 0 -11 -7 -8 -15z m-112 -211 c-9 -8 -36 -10 -30 -2 2 4 11 8 20
8 8 0 13 -3 10 -6z m-15 -35 c-15 -15 -44 -17 -31 -2 6 7 18 13 26 13 11 0 12
-4 5 -11z"/>
<path d="M2514 6753 c2 -10 6 -17 10 -16 15 3 16 11 2 22 -12 10 -14 9 -12 -6z"/>
<path d="M2342 6740 c0 -14 2 -19 5 -12 2 6 2 18 0 25 -3 6 -5 1 -5 -13z"/>
<path d="M2270 6640 c0 -5 5 -10 11 -10 5 0 7 -5 3 -12 -4 -7 -3 -8 5 -4 9 6
9 11 0 22 -14 17 -19 18 -19 4z"/>
<path d="M2332 6625 c0 -16 2 -22 5 -12 2 9 2 23 0 30 -3 6 -5 -1 -5 -18z"/>
<path d="M2395 6640 c4 -6 11 -8 16 -5 14 9 11 15 -7 15 -8 0 -12 -5 -9 -10z"/>
<path d="M2261 6604 c0 -11 3 -14 6 -6 3 7 2 16 -1 19 -3 4 -6 -2 -5 -13z"/>
<path d="M4366 7891 c9 -9 34 -9 34 -1 0 5 -9 8 -20 7 -10 -1 -17 -3 -14 -6z"/>
<path d="M4420 7890 c0 -5 9 -9 20 -7 30 5 32 12 5 15 -14 1 -25 -3 -25 -8z"/>
<path d="M3444 7528 l-19 -23 25 20 c14 11 27 21 29 22 2 2 0 3 -6 3 -5 0 -18
-10 -29 -22z"/>
<path d="M3332 7408 c-14 -14 -16 -35 -3 -42 4 -3 13 6 19 19 12 27 2 41 -16
23z"/>
<path d="M4355 7340 c3 -5 8 -10 11 -10 2 0 4 5 4 10 0 6 -5 10 -11 10 -5 0
-7 -4 -4 -10z"/>
<path d="M3255 7260 c43 -21 65 -25 65 -12 0 9 -67 32 -91 32 -8 -1 4 -9 26
-20z"/>
<path d="M3411 7241 c-6 -11 -11 -28 -10 -38 0 -15 2 -14 9 4 5 13 15 21 22
19 7 -1 10 -1 5 1 -4 3 -5 9 -2 13 3 5 1 11 -4 15 -6 3 -15 -3 -20 -14z"/>
<path d="M3556 7194 c-3 -8 -11 -12 -16 -9 -15 9 0 -48 14 -57 21 -14 25 -8
24 37 -1 45 -11 59 -22 29z m11 -45 c2 -12 -1 -18 -7 -14 -5 3 -10 16 -10 27
0 26 13 16 17 -13z"/>
<path d="M3327 7186 c-3 -8 0 -19 6 -25 10 -7 13 -4 15 15 2 26 -12 33 -21 10z"/>
<path d="M3520 7089 c0 -5 5 -7 10 -4 6 3 10 8 10 11 0 2 -4 4 -10 4 -5 0 -10
-5 -10 -11z"/>
<path d="M3416 7040 c5 -8 7 -24 6 -35 -2 -19 -2 -19 9 -1 9 14 8 21 -6 35
-14 12 -16 12 -9 1z"/>
<path d="M3402 6980 c1 -8 -2 -23 -7 -33 -5 -11 -3 -23 5 -30 10 -10 12 -8 7
6 -4 9 -3 17 2 17 5 0 11 9 14 20 3 11 1 18 -3 15 -5 -3 -11 1 -14 7 -4 9 -5
8 -4 -2z"/>
<path d="M3361 6964 c0 -11 3 -14 6 -6 3 7 2 16 -1 19 -3 4 -6 -2 -5 -13z"/>
<path d="M4410 6972 c0 -11 75 -64 115 -81 17 -7 47 -15 68 -18 l38 -4 -16 24
c-17 27 -44 41 -130 68 -68 21 -75 22 -75 11z"/>
<path d="M3285 6660 c-3 -6 1 -7 9 -4 18 7 21 14 7 14 -6 0 -13 -4 -16 -10z"/>
<path d="M3272 6621 c-25 -11 -31 -19 -26 -34 4 -14 3 -17 -6 -12 -9 6 -11 4
-6 -4 6 -9 12 -9 24 3 10 8 22 15 27 15 13 0 38 38 28 43 -4 2 -23 -3 -41 -11z"/>
<path d="M3470 6360 c-9 -6 -10 -10 -3 -10 6 0 15 5 18 10 8 12 4 12 -15 0z"/>
<path d="M3718 6189 c-10 -5 -22 -19 -28 -29 -8 -16 -7 -20 4 -20 9 0 22 14
31 30 17 33 17 34 -7 19z"/>
<path d="M2931 5164 c-17 -18 -19 -24 -7 -33 16 -14 35 5 31 30 -2 12 3 15 16
12 10 -3 19 -1 19 4 0 17 -38 9 -59 -13z"/>
<path d="M3059 5164 c-5 -15 -12 -30 -14 -35 -3 -4 4 -5 15 -2 11 3 23 9 26
14 3 5 -2 6 -11 3 -13 -5 -14 -2 -5 20 5 14 7 26 5 26 -3 0 -10 -12 -16 -26z"/>
<path d="M2965 5150 c4 -6 11 -8 16 -5 14 9 11 15 -7 15 -8 0 -12 -5 -9 -10z"/>
<path d="M3695 5003 c4 -16 12 -34 18 -42 10 -12 13 -9 18 15 6 32 -5 54 -28
54 -12 0 -13 -7 -8 -27z"/>
<path d="M3640 4870 c0 -5 5 -10 11 -10 5 0 7 5 4 10 -3 6 -8 10 -11 10 -2 0
-4 -4 -4 -10z"/>
<path d="M3614 4825 c0 -13 4 -21 8 -19 4 3 8 11 8 19 0 8 -4 16 -8 19 -4 2
-8 -6 -8 -19z"/>
<path d="M5205 7500 c-8 -13 15 -24 27 -12 6 6 4 11 -6 15 -8 3 -18 2 -21 -3z"/>
<path d="M5772 6944 c-1 -13 0 -24 2 -24 7 0 14 40 7 44 -4 3 -8 -6 -9 -20z"/>
<path d="M5830 6452 c0 -5 7 -9 15 -9 8 0 12 4 9 9 -3 4 -9 8 -15 8 -5 0 -9
-4 -9 -8z"/>
<path d="M4789 6563 c-13 -16 -12 -17 4 -4 16 13 21 21 13 21 -2 0 -10 -8 -17
-17z"/>
<path d="M4645 6319 c-11 -16 -1 -19 13 -3 7 8 8 14 3 14 -5 0 -13 -5 -16 -11z"/>
<path d="M2604 6633 c4 -9 1 -13 -10 -13 -14 0 -15 -2 -3 -17 8 -9 9 -14 4
-11 -17 10 -36 -7 -29 -25 7 -19 20 -22 29 -7 3 5 12 7 20 3 10 -3 15 2 15 17
0 14 -4 19 -12 14 -10 -6 -10 -5 0 8 10 13 9 18 -5 29 -11 9 -14 10 -9 2z"/>
<path d="M2532 6548 c2 -6 12 -12 22 -14 14 -2 15 0 5 12 -14 17 -32 19 -27 2z"/>
<path d="M2620 6541 c0 -5 5 -13 10 -16 6 -3 10 -2 10 4 0 5 -4 13 -10 16 -5
3 -10 2 -10 -4z"/>
<path d="M2696 6512 c-3 -5 1 -9 9 -9 8 0 12 4 9 9 -3 4 -7 8 -9 8 -2 0 -6 -4
-9 -8z"/>
<path d="M2159 5429 c0 -8 -2 -21 -3 -29 -2 -8 1 -24 5 -35 7 -16 8 -14 6 11
-2 23 0 31 10 27 18 -7 16 12 -2 27 -12 10 -15 10 -16 -1z"/>
<path d="M2124 5396 c-4 -10 -1 -24 7 -32 13 -12 15 -11 14 11 -2 32 -13 43
-21 21z"/>
<path d="M2230 5406 c0 -2 8 -10 18 -17 15 -13 16 -12 3 4 -13 16 -21 21 -21
13z"/>
<path d="M2101 5395 c-8 -33 -7 -55 1 -47 6 6 8 20 5 33 -2 13 -5 20 -6 14z"/>
<path d="M2081 5124 c0 -11 3 -14 6 -6 3 7 2 16 -1 19 -3 4 -6 -2 -5 -13z"/>
<path d="M6065 2852 c3 -3 -1 -12 -7 -21 -8 -10 -4 -9 10 3 26 23 26 23 7 23
-8 0 -13 -3 -10 -5z"/>
</g>
</svg>
