<?xml version="1.0" encoding="UTF-8"?><svg xmlns="http://www.w3.org/2000/svg" xmlns:xlink="http://www.w3.org/1999/xlink" width="375" zoomAndPan="magnify" viewBox="0 0 375 225" height="225" preserveAspectRatio="xMidYMid meet" version="1.0"><path fill="rgb(0%, 0%, 0%)" d="M 180.617188 73.601562 C 174.3125 74.0625 171.226562 74.457031 166.496094 75.441406 C 161.601562 76.425781 154.707031 78.300781 153.195312 79.023438 C 152.835938 79.1875 150.996094 79.84375 149.125 80.503906 C 141.144531 83.195312 131.621094 88.621094 125.085938 94.175781 C 123.148438 95.816406 122.722656 96.046875 120.984375 96.246094 C 118.058594 96.574219 109.195312 98.050781 106.566406 98.609375 C 102.230469 99.5625 94.777344 101.4375 92.972656 102.027344 C 91.953125 102.359375 90.214844 102.851562 89.097656 103.144531 C 86.535156 103.769531 80.328125 106.203125 75.863281 108.339844 C 73.957031 109.226562 72.054688 110.113281 71.59375 110.34375 C 69.589844 111.230469 64.894531 114.1875 61.578125 116.652344 C 57.179688 119.90625 54.847656 122.40625 54.847656 123.785156 C 54.847656 125.691406 57.507812 130.097656 60.757812 133.613281 C 61.316406 134.203125 62.039062 135.058594 62.300781 135.453125 C 62.5625 135.878906 63.089844 136.207031 63.417969 136.207031 C 64.207031 136.207031 64.207031 136.109375 63.285156 134.632812 C 62.53125 133.480469 60.660156 128.023438 60.234375 125.855469 C 60.066406 124.96875 60.234375 124.640625 61.808594 123.09375 C 65.453125 119.449219 69.753906 116.554688 79.640625 111.164062 C 82.367188 109.6875 83.417969 109.421875 83.417969 110.210938 C 83.417969 110.410156 83.085938 110.902344 82.695312 111.328125 C 81.085938 113.105469 80.132812 114.1875 80.132812 114.320312 C 80.132812 114.417969 79.707031 115.109375 79.179688 115.898438 C 78.6875 116.6875 77.734375 118.855469 77.144531 120.761719 C 76.09375 124.046875 76.027344 124.441406 76.027344 128.976562 C 76.058594 133.285156 76.125 134.007812 76.980469 136.539062 C 78.71875 141.828125 80.527344 144.621094 84.300781 147.910156 C 85.550781 148.992188 86.601562 149.945312 86.699219 150.046875 C 87.027344 150.503906 90.542969 152.214844 92.117188 152.738281 C 97.304688 154.417969 101.476562 154.679688 106.238281 153.628906 C 111.132812 152.574219 113.070312 151.65625 116.515625 148.761719 C 117.894531 147.582031 118.160156 147.21875 117.863281 146.824219 C 117.535156 146.460938 117.371094 146.460938 116.78125 146.890625 C 115.300781 147.941406 112.378906 149.617188 111.625 149.847656 C 111.195312 149.945312 110.539062 150.175781 110.179688 150.339844 C 108.832031 150.964844 104.992188 151.65625 102.953125 151.65625 C 100.589844 151.65625 95.828125 150.636719 93.988281 149.75 C 91.035156 148.304688 87.785156 146.132812 86.304688 144.589844 C 85.453125 143.703125 84.730469 142.816406 84.730469 142.648438 C 84.730469 142.519531 84.335938 141.828125 83.84375 141.171875 C 81.972656 138.738281 81.347656 137.359375 80.460938 133.941406 C 78.785156 127.632812 80.328125 120.992188 84.730469 115.175781 C 86.929688 112.28125 88.175781 111.230469 91.59375 109.359375 C 95.992188 106.894531 97.699219 106.464844 102.789062 106.5 C 106.433594 106.5 107.585938 106.628906 109.195312 107.1875 C 112.542969 108.371094 114.019531 109.128906 116.351562 110.707031 C 117.566406 111.527344 118.71875 112.21875 118.882812 112.21875 C 119.503906 112.21875 119.210938 110.96875 118.488281 110.476562 C 118.058594 110.210938 117.304688 109.589844 116.746094 109.128906 C 115.171875 107.714844 112.609375 106.136719 110.671875 105.347656 C 109.6875 104.953125 108.570312 104.492188 108.207031 104.328125 C 107.847656 104.164062 106.828125 103.96875 105.910156 103.871094 C 102.855469 103.507812 103.152344 102.421875 106.5 101.832031 C 107.617188 101.601562 110.703125 100.976562 113.332031 100.417969 C 118.324219 99.367188 122.164062 98.710938 128.074219 97.886719 C 131.390625 97.460938 133.660156 97.199219 141.867188 96.410156 C 143.9375 96.210938 153.394531 95.949219 162.882812 95.851562 C 180.945312 95.621094 180.945312 95.585938 162.71875 94.796875 C 155.167969 94.46875 151.226562 94.46875 143.773438 94.765625 C 138.582031 94.996094 134.183594 95.09375 133.988281 94.964844 C 133.460938 94.632812 134.050781 94.042969 136.582031 92.367188 C 139.207031 90.625 143.148438 88.226562 143.34375 88.226562 C 143.445312 88.226562 145.347656 87.339844 147.582031 86.253906 C 149.847656 85.167969 151.882812 84.28125 152.113281 84.28125 C 152.34375 84.28125 152.835938 84.085938 153.195312 83.820312 C 153.984375 83.296875 162.753906 80.339844 163.574219 80.339844 C 163.902344 80.339844 165.90625 79.910156 168.039062 79.386719 C 172.113281 78.398438 175.527344 77.773438 182.09375 76.820312 C 185.3125 76.359375 188.367188 76.261719 198.511719 76.261719 C 209.382812 76.261719 211.78125 76.359375 217.066406 76.984375 C 220.417969 77.378906 223.960938 77.875 224.949219 78.039062 C 225.933594 78.203125 228.167969 78.5625 229.875 78.859375 C 231.582031 79.15625 233.585938 79.515625 234.308594 79.679688 C 235.027344 79.84375 236.671875 80.140625 237.917969 80.339844 C 240.285156 80.699219 249.742188 82.933594 252.695312 83.820312 C 253.617188 84.085938 254.996094 84.511719 255.816406 84.742188 C 256.636719 85.003906 258.179688 85.464844 259.261719 85.761719 C 260.347656 86.089844 261.53125 86.449219 261.890625 86.613281 C 263.136719 87.074219 265.832031 87.832031 267.078125 88.0625 C 267.734375 88.191406 268.394531 88.421875 268.492188 88.585938 C 268.589844 88.75 268.984375 88.882812 269.378906 88.882812 C 269.773438 88.882812 270.527344 89.113281 271.019531 89.375 C 271.511719 89.640625 272.433594 89.933594 273.054688 90.066406 C 273.679688 90.164062 274.203125 90.394531 274.203125 90.558594 C 274.203125 90.722656 274.535156 90.855469 274.960938 90.855469 C 275.355469 90.855469 276.109375 91.085938 276.636719 91.347656 C 277.128906 91.609375 277.816406 91.839844 278.113281 91.839844 C 278.410156 91.839844 278.933594 92.039062 279.292969 92.269531 C 280.246094 92.925781 281.496094 93.1875 281.332031 92.726562 C 281.265625 92.5 280.804688 92.300781 280.34375 92.234375 C 279.851562 92.167969 279.460938 92.003906 279.460938 91.839844 C 279.460938 91.675781 279 91.445312 278.410156 91.347656 C 277.851562 91.214844 277.160156 90.886719 276.898438 90.65625 C 276.667969 90.394531 276.175781 90.199219 275.847656 90.199219 C 275.519531 90.199219 274.828125 90 274.304688 89.738281 C 272.265625 88.6875 270.953125 88.226562 269.96875 88.226562 C 269.410156 88.226562 268.949219 88.09375 268.949219 87.929688 C 268.949219 87.765625 268.394531 87.535156 267.734375 87.402344 C 267.046875 87.273438 266.324219 87.042969 266.160156 86.910156 C 265.863281 86.648438 261.300781 85.101562 253.1875 82.472656 C 251.84375 82.046875 249.3125 81.390625 247.605469 80.996094 C 245.898438 80.601562 243.828125 80.074219 243.007812 79.8125 C 238.574219 78.398438 224.652344 75.605469 216.148438 74.421875 C 211.746094 73.832031 198.613281 73.109375 192.4375 73.140625 C 189.089844 73.171875 183.769531 73.371094 180.617188 73.601562 Z M 180.617188 73.601562 " fill-opacity="1" fill-rule="nonzero"/><path fill="rgb(0%, 0%, 0%)" d="M 139.40625 110.902344 C 131.65625 111.035156 125.023438 111.265625 124.726562 111.394531 C 124.035156 111.660156 123.972656 112.183594 124.5625 112.382812 C 124.757812 112.445312 128.339844 112.578125 132.441406 112.644531 C 137.46875 112.742188 140.0625 112.90625 140.324219 113.171875 C 140.519531 113.367188 140.71875 114.617188 140.75 115.929688 C 141.539062 142.585938 141.964844 151.558594 142.523438 152.117188 C 142.722656 152.3125 142.953125 152.34375 143.179688 152.117188 C 143.542969 151.753906 144.035156 142.386719 144.527344 126.183594 C 144.726562 119.316406 145.019531 113.566406 145.183594 113.367188 C 145.445312 113.105469 173 113.105469 179.304688 113.398438 C 180.484375 113.433594 183.835938 113.5 186.789062 113.5 C 192.109375 113.53125 192.109375 113.53125 192.109375 114.289062 C 192.109375 114.714844 191.484375 115.734375 190.632812 116.652344 C 188.859375 118.660156 189.089844 118.363281 186.625 121.582031 C 185.542969 123.03125 184.394531 124.410156 184.097656 124.671875 C 183.800781 124.902344 183.570312 125.265625 183.570312 125.429688 C 183.570312 125.824219 180.519531 129.765625 177.890625 132.726562 C 177.398438 133.285156 176.675781 134.300781 176.28125 134.960938 C 175.886719 135.648438 175.460938 136.207031 175.296875 136.207031 C 175.164062 136.207031 174.835938 136.636719 174.574219 137.160156 C 174.277344 137.6875 173.589844 138.609375 173 139.230469 C 171.71875 140.546875 168.796875 144.261719 168.796875 144.589844 C 168.796875 144.722656 167.972656 145.804688 166.988281 146.988281 C 166.003906 148.203125 165.183594 149.421875 165.183594 149.75 C 165.183594 151.195312 165.347656 151.195312 195.722656 150.933594 C 211.515625 150.800781 245.703125 150.605469 271.675781 150.472656 C 317.550781 150.273438 318.863281 150.242188 318.863281 149.652344 C 318.863281 149.058594 318.46875 149.027344 310.589844 149.027344 C 306.023438 149.027344 273.1875 148.863281 237.589844 148.632812 C 202.027344 148.433594 172.339844 148.269531 171.683594 148.304688 C 170.601562 148.335938 170.4375 148.269531 170.4375 147.613281 C 170.4375 147.21875 171.09375 146.199219 171.847656 145.34375 C 173.851562 143.109375 175.363281 141.238281 175.363281 140.910156 C 175.363281 140.742188 175.757812 140.183594 176.28125 139.625 C 177.070312 138.738281 182.09375 132.59375 182.652344 131.773438 C 182.785156 131.609375 183.308594 130.917969 183.835938 130.292969 C 184.328125 129.667969 185.476562 128.222656 186.332031 127.070312 C 187.183594 125.921875 188.167969 124.738281 188.464844 124.441406 C 188.792969 124.148438 189.910156 122.699219 190.960938 121.253906 C 192.042969 119.808594 193.488281 118 194.210938 117.210938 C 194.933594 116.457031 195.6875 115.570312 195.851562 115.242188 C 196.019531 114.945312 196.511719 114.320312 196.9375 113.859375 C 197.789062 112.941406 198.183594 111.824219 197.890625 111.066406 C 197.726562 110.640625 195 110.574219 175.625 110.640625 C 163.476562 110.671875 147.1875 110.804688 139.40625 110.902344 Z M 139.40625 110.902344 " fill-opacity="1" fill-rule="nonzero"/><path fill="rgb(0%, 0%, 0%)" d="M 202.421875 126.972656 C 199.695312 128.222656 198.285156 131.214844 198.808594 134.730469 C 199.007812 135.914062 199.300781 136.375 200.222656 137.097656 C 202.453125 138.804688 207.183594 138.246094 207.476562 136.242188 C 207.609375 135.386719 207.347656 135.386719 205.96875 136.207031 C 204.160156 137.324219 201.828125 136.996094 200.582031 135.421875 C 199.664062 134.300781 199.828125 131.707031 200.910156 130.128906 C 202.75 127.464844 205.574219 126.808594 207.640625 128.550781 C 208.855469 129.539062 209.578125 129.539062 209.449219 128.585938 C 209.1875 126.613281 205.210938 125.691406 202.421875 126.972656 Z M 202.421875 126.972656 " fill-opacity="1" fill-rule="nonzero"/><path fill="rgb(0%, 0%, 0%)" d="M 216.113281 128.550781 C 215.195312 129.765625 214.308594 130.949219 214.113281 131.179688 C 213.945312 131.410156 213.78125 131.640625 213.78125 131.738281 C 213.78125 132.003906 212.402344 133.972656 211.058594 135.617188 C 209.808594 137.160156 209.480469 138.179688 210.300781 138.179688 C 210.792969 138.179688 211.8125 137.324219 211.8125 136.933594 C 211.8125 136.800781 212.175781 136.273438 212.632812 135.78125 C 213.421875 134.960938 213.652344 134.894531 216.246094 134.894531 C 219.234375 134.894531 219.695312 135.15625 219.695312 136.964844 C 219.695312 137.851562 220.644531 138.445312 221.039062 137.785156 C 221.171875 137.589844 221.238281 137.292969 221.140625 137.160156 C 221.074219 137.03125 220.777344 135.320312 220.515625 133.382812 C 219.398438 125.527344 218.839844 124.902344 216.113281 128.550781 Z M 218.742188 130.425781 C 218.742188 130.984375 218.871094 131.738281 219.003906 132.101562 C 219.5625 133.546875 219.136719 133.90625 216.707031 133.90625 C 214.503906 133.90625 214.441406 133.875 214.441406 133.085938 C 214.441406 132.660156 214.636719 132.167969 214.898438 132.035156 C 215.128906 131.902344 215.753906 131.179688 216.214844 130.457031 C 216.707031 129.734375 217.265625 129.042969 217.492188 128.914062 C 218.085938 128.550781 218.707031 129.308594 218.742188 130.425781 Z M 218.742188 130.425781 " fill-opacity="1" fill-rule="nonzero"/><path fill="rgb(0%, 0%, 0%)" d="M 226.6875 126.546875 C 226.261719 126.742188 225.898438 127.828125 224.292969 133.679688 C 223.4375 136.734375 223.304688 137.621094 223.601562 137.949219 C 224.160156 138.507812 224.847656 137.523438 225.113281 135.78125 C 225.40625 133.972656 225.769531 133.578125 227.117188 133.578125 C 228.296875 133.578125 229.546875 134.5 229.546875 135.386719 C 229.546875 135.648438 229.675781 135.878906 229.839844 135.878906 C 230.003906 135.878906 230.300781 136.339844 230.496094 136.867188 C 230.890625 138.015625 231.648438 138.410156 232.335938 137.851562 C 232.761719 137.492188 232.699219 137.261719 231.84375 136.109375 C 230.5625 134.335938 230.53125 133.382812 231.84375 133.085938 C 233.089844 132.824219 234.800781 130.851562 234.800781 129.703125 C 234.800781 128.550781 234.042969 127.464844 232.828125 126.84375 C 231.910156 126.382812 227.640625 126.183594 226.6875 126.546875 Z M 232.46875 128.355469 C 233.847656 129.667969 232.992188 131.640625 230.824219 132.199219 C 229.511719 132.5625 226.6875 132.363281 226.394531 131.902344 C 226.0625 131.34375 227.3125 127.960938 227.902344 127.730469 C 229.019531 127.300781 231.746094 127.695312 232.46875 128.355469 Z M 232.46875 128.355469 " fill-opacity="1" fill-rule="nonzero"/><path fill="rgb(0%, 0%, 0%)" d="M 241.5625 126.613281 C 241.136719 127.039062 242.222656 127.664062 243.371094 127.664062 C 244.488281 127.664062 244.652344 127.761719 244.652344 128.386719 C 244.617188 129.109375 243.765625 132.988281 242.976562 135.78125 C 242.582031 137.226562 242.714844 138.179688 243.304688 138.179688 C 243.5 138.179688 243.765625 137.785156 243.863281 137.261719 C 244.550781 134.367188 246.324219 128.15625 246.523438 127.960938 C 246.6875 127.828125 247.605469 127.664062 248.589844 127.597656 C 249.96875 127.53125 250.429688 127.367188 250.496094 126.941406 C 250.59375 126.449219 250.167969 126.382812 246.160156 126.414062 C 243.730469 126.414062 241.664062 126.511719 241.5625 126.613281 Z M 241.5625 126.613281 " fill-opacity="1" fill-rule="nonzero"/><path fill="rgb(0%, 0%, 0%)" d="M 253.453125 126.90625 C 253.1875 127.238281 252.730469 128.683594 252.402344 130.128906 C 252.070312 131.574219 251.515625 133.777344 251.152344 135.027344 C 250.464844 137.425781 250.5625 138.542969 251.351562 137.886719 C 251.578125 137.6875 251.972656 136.800781 252.203125 135.945312 C 252.761719 133.90625 253.058594 133.578125 254.304688 133.578125 C 255.652344 133.578125 256.210938 134.039062 257.292969 136.042969 C 258.441406 138.214844 258.640625 138.378906 259.261719 137.851562 C 259.722656 137.492188 259.691406 137.292969 258.933594 136.011719 C 257.820312 134.105469 257.851562 133.347656 259.097656 133.085938 C 262.054688 132.429688 262.613281 128.15625 259.921875 126.84375 C 258.34375 126.121094 254.109375 126.152344 253.453125 126.90625 Z M 258.210938 127.828125 C 259 127.960938 259.625 128.289062 259.953125 128.8125 C 260.414062 129.539062 260.414062 129.703125 259.921875 130.71875 C 259.296875 132.101562 257.785156 132.59375 255.191406 132.332031 C 253.289062 132.167969 253.15625 131.835938 253.976562 129.472656 C 254.4375 128.125 255.453125 127.335938 256.40625 127.53125 C 256.734375 127.566406 257.523438 127.730469 258.210938 127.828125 Z M 258.210938 127.828125 " fill-opacity="1" fill-rule="nonzero"/><path fill="rgb(0%, 0%, 0%)" d="M 269.378906 127.796875 C 268.820312 128.550781 267.570312 130.390625 266.621094 131.804688 C 265.667969 133.21875 264.355469 135.058594 263.664062 135.878906 C 262.515625 137.324219 262.316406 138.179688 263.203125 138.179688 C 263.433594 138.179688 264.023438 137.621094 264.519531 136.933594 C 265.960938 134.992188 266.226562 134.859375 269.050781 134.925781 C 271.808594 134.992188 272.5625 135.355469 272.5625 136.667969 C 272.5625 137.097656 272.792969 137.621094 273.054688 137.851562 C 273.910156 138.574219 274.007812 137.359375 273.417969 133.644531 C 272.398438 127.402344 272.136719 126.511719 271.214844 126.449219 C 270.625 126.382812 270.164062 126.679688 269.378906 127.796875 Z M 271.511719 130.488281 C 271.742188 131.378906 271.875 132.460938 271.839844 132.921875 C 271.742188 133.710938 271.644531 133.742188 269.445312 133.742188 C 267.34375 133.742188 267.144531 133.679688 267.242188 133.085938 C 267.308594 132.726562 267.769531 131.96875 268.226562 131.410156 C 268.722656 130.820312 269.378906 129.964844 269.707031 129.472656 C 270.527344 128.289062 271.019531 128.550781 271.511719 130.488281 Z M 271.511719 130.488281 " fill-opacity="1" fill-rule="nonzero"/><path fill="rgb(0%, 0%, 0%)" d="M 279.359375 126.808594 C 279.128906 127.070312 278.441406 129.011719 277.851562 131.179688 C 277.257812 133.316406 276.636719 135.386719 276.472656 135.8125 C 275.78125 137.523438 276.011719 137.851562 278.078125 137.917969 C 282.511719 138.082031 284.449219 137.492188 286.15625 135.519531 C 288.949219 132.230469 288.09375 127.695312 284.515625 126.710938 C 282.675781 126.183594 279.917969 126.25 279.359375 126.808594 Z M 285.042969 128.617188 C 286.683594 129.832031 286.714844 132.726562 285.105469 134.5 C 283.695312 136.042969 281.691406 136.933594 279.6875 136.800781 C 278.113281 136.703125 277.980469 136.636719 278.015625 135.878906 C 278.046875 135.421875 278.441406 133.777344 278.933594 132.167969 C 279.394531 130.589844 279.789062 129.078125 279.789062 128.8125 C 279.789062 128.585938 280.082031 128.15625 280.445312 127.894531 C 281.296875 127.300781 283.828125 127.695312 285.042969 128.617188 Z M 285.042969 128.617188 " fill-opacity="1" fill-rule="nonzero"/><path fill="rgb(0%, 0%, 0%)" d="M 292.332031 126.777344 C 291.9375 127.238281 290 133.972656 289.640625 136.144531 C 289.507812 137.03125 289.539062 137.621094 289.769531 137.785156 C 289.96875 137.949219 291.773438 138.050781 293.742188 138.050781 C 296.730469 138.015625 297.355469 137.917969 297.355469 137.523438 C 297.355469 137.128906 296.765625 136.996094 294.300781 136.933594 C 292.101562 136.867188 291.214844 136.703125 291.082031 136.40625 C 290.984375 136.144531 291.117188 135.222656 291.378906 134.367188 L 291.839844 132.757812 L 294.761719 132.757812 C 297.125 132.757812 297.683594 132.660156 297.683594 132.265625 C 297.683594 131.871094 297.160156 131.738281 295.320312 131.671875 C 292.527344 131.574219 292.101562 131.214844 292.628906 129.601562 C 293.25 127.796875 293.515625 127.664062 296.863281 127.597656 C 299.523438 127.5 299.984375 127.402344 300.082031 126.90625 C 300.179688 126.414062 299.851562 126.347656 296.4375 126.347656 C 293.777344 126.347656 292.5625 126.480469 292.332031 126.777344 Z M 292.332031 126.777344 " fill-opacity="1" fill-rule="nonzero"/><path fill="rgb(0%, 0%, 0%)" d="M 303.859375 126.613281 C 303.660156 126.742188 303.167969 128.023438 302.773438 129.472656 C 302.378906 130.917969 301.691406 133.347656 301.230469 134.859375 C 300.410156 137.589844 300.476562 138.410156 301.527344 138.015625 C 301.855469 137.886719 302.148438 137.195312 302.28125 136.273438 C 302.542969 134.402344 303.234375 133.578125 304.480469 133.578125 C 305.597656 133.578125 306.320312 134.269531 307.570312 136.503906 C 308.488281 138.148438 309.40625 138.671875 309.769531 137.71875 C 309.867188 137.457031 309.539062 136.703125 309.011719 135.980469 C 307.796875 134.402344 307.765625 133.644531 308.949219 133.21875 C 310.589844 132.59375 311.640625 131.277344 311.640625 129.867188 C 311.640625 127.269531 310.328125 126.347656 306.648438 126.347656 C 305.335938 126.347656 304.085938 126.480469 303.859375 126.613281 Z M 309.933594 128.585938 C 310.523438 129.371094 310.425781 130.785156 309.671875 131.441406 C 308.882812 132.167969 306.746094 132.59375 305.007812 132.332031 L 303.695312 132.167969 L 303.890625 130.359375 C 304.023438 129.339844 304.25 128.355469 304.449219 128.125 C 305.238281 127.171875 309.046875 127.53125 309.933594 128.585938 Z M 309.933594 128.585938 " fill-opacity="1" fill-rule="nonzero"/><path fill="rgb(0%, 0%, 0%)" d="M 315.8125 126.546875 C 315.679688 126.679688 315.746094 126.972656 315.976562 127.238281 C 316.269531 127.597656 316.925781 127.632812 319.09375 127.464844 C 321.65625 127.269531 321.820312 127.269531 321.820312 127.894531 C 321.820312 128.289062 320.671875 129.601562 318.800781 131.3125 C 312.953125 136.667969 312.230469 137.425781 312.59375 137.65625 C 313.25 138.082031 321.230469 138.214844 321.6875 137.820312 C 322.542969 137.097656 321.753906 136.867188 318.667969 136.867188 C 314.332031 136.867188 314.265625 136.996094 322.015625 129.964844 C 324.414062 127.796875 324.90625 127.171875 324.609375 126.679688 C 324.414062 126.347656 316.140625 126.25 315.8125 126.546875 Z M 315.8125 126.546875 " fill-opacity="1" fill-rule="nonzero"/></svg>