<svg width="512" height="512" cursor="pointer" viewBox="0 0 300 300" xmlns="http://www.w3.org/2000/svg">
<g transform="scale(1.4962)" fill="#aeccc6" featurekey="rootContainer">
<path d="M100.254 0C44.974 0 0 44.974 0 100.254s44.974 100.254 100.254 100.254c55.28 0 100.254-44.974 100.254-100.254S155.534 0 100.254 0zm0 195.508C47.731 195.508 5 152.777 5 100.254S47.731 5 100.254 5s95.254 42.73 95.254 95.254-42.731 95.254-95.254 95.254z" xmlns="http://www.w3.org/2000/svg"/>
</g>
<g transform="matrix(.75892 0 0 .75892 112.16 69.185)" fill="#aeccc6" featurekey="symbolFeature-0">
<path d="m72.815 91.944s-6.845 2.793-10.402 3.806c-3.836 1.097-7.862 1.488-11.84 1.513-2.312 0.015-4.625-0.113-6.928-0.333-6.494-0.616-13.263-5.055-17.342-10.035-1.381-1.683-2.581-3.498-3.776-5.299l-5.605 1.576 7.621-25.472 18.37 18.161-6.072 1.708h1e-3c2.524 4.242 7.053 9.814 11.224 12.467 5.624 3.571 12.405 4.1 18.837 3.009 1.974-0.338 5.912-1.101 5.912-1.101zm10.065-22.076c-0.913 9.252-7.095 19.013-16.961 20.29-8.787 1.14-14.964-3.596-21.075-9.13 5e-3 0 8.455-3.288 8.455-3.288l-26.981-27.762s1.507-4.12 2.304-6.165c6.318-16.177 17.715-27.875 30.142-39.662 0.237-0.225 1.894-1.759 1.894-1.759-5e-3 0.254-0.103 5.939-0.103 5.939-0.167 9.543 3.102 17.648 8.703 25.237 4.024 5.448 8.372 10.842 10.914 17.186 2.419 6.036 3.349 12.646 2.708 19.114zm-5.487-10.216c-0.359-1.316-0.805-2.603-1.299-3.875-0.411-1.062-1.473-2.593-1.557-3.709 1.568 21.602-15.965 32.977-15.97 32.981 0.399-0.259 2.144 0.162 2.654 0.187 0.852 0.034 1.705 0.049 2.552-0.01 2.437-0.167 5.7-1.938 7.675-3.293 4.547-3.121 6.661-8.514 6.92-13.876 0.14-2.832-0.229-5.669-0.975-8.405z" xmlns="http://www.w3.org/2000/svg"/>
</g>
<g transform="matrix(1.0432 0 0 1.0432 45.786 151.69)" fill="#aeccc6" featurekey="nameFeature-0">
<path d="m13.32 28.6h-6.2v11.4h-3.08v-29.16h9.76c7.12-0.04 10.24 4.24 10.24 8.76 0 2.52-0.96 4.72-2.68 6.36-1.76 1.64-4.6 2.64-8.04 2.64zm0.24-14.88h-6.44v12.04h6.28c2.6 0 4.64-0.76 5.8-1.96 1.16-1.16 1.72-2.6 1.72-4.12 0-2.84-1.64-5.96-7.36-5.96zm38.107 26.28h-3.72l-8.64-11.8h-5.92v11.8h-3.08v-29.16h10.12c3.44 0 6.2 0.96 7.8 2.56s2.44 3.6 2.44 5.96c0 4.92-3.68 7.76-8 8.32zm-18.28-26.28v11.68h6.76c2.56 0 4.56-0.72 5.72-1.88 1.12-1.12 1.68-2.52 1.68-4.08 0-2.88-1.76-5.72-7.32-5.72h-6.84zm24.627 26.28v-29.16h18.24v2.84h-15.16v10.08h13.88v2.84h-13.88v10.56h15.32v2.84h-18.4zm51.667-29.16h4.4v29.16h-3.04v-25l-10.84 25h-2.76l-10.76-24.8v24.8h-3.04v-29.16h4.36l10.88 25zm13.427 29.16v-29.16h3.08v29.16h-3.08zm30.547-29.16h3.08v17.76c0 3.68-1 6.56-2.88 8.6-1.92 2.04-4.64 3.08-8.12 3.08-3.44 0-6.16-1.04-8.04-3.12-1.92-2.08-2.88-4.84-2.88-8.36v-17.96h3.04v17.8c0 3.08 0.88 5.44 2.32 6.76 1.48 1.36 3.36 2 5.72 2 2.48 0 4.4-0.72 5.76-2.24 1.32-1.52 2-3.6 2-6.36v-17.96zm37.707 0h4.4v29.16h-3.04v-25l-10.84 25h-2.76l-10.76-24.8v24.8h-3.04v-29.16h4.36l10.88 25z"/>
</g>
<g transform="matrix(.89306 0 0 .89306 48.214 194.61)" fill="#aeccc6" featurekey="nameFeature-1">
<path d="m16.56 40.32c-4 0-7.72-1.56-10.32-4.12-1.28-1.28-2.32-2.84-3.08-4.68-0.76-1.88-1.16-3.88-1.16-6 0-2.16 0.4-4.2 1.2-6.08s1.84-3.48 3.16-4.76c2.68-2.6 6.4-4.16 10.32-4.16 3.08 0 5.88 0.92 7.76 2.24 0.96 0.64 1.8 1.4 2.56 2.24 1.48 1.72 2.28 3.44 2.72 5.12l-2.92 1.04c-0.24-0.96-0.64-2-1.72-3.52-0.56-0.76-1.16-1.44-1.88-2.04s-1.64-1.12-2.8-1.52c-1.16-0.44-2.4-0.64-3.8-0.64-3.04 0-5.96 1.24-8 3.28-2.08 2.08-3.4 5.16-3.4 8.6 0 2.28 0.48 4.36 1.48 6.2 0.96 1.84 2.32 3.28 4.12 4.32 1.72 1.04 3.68 1.56 5.84 1.56 2.68 0 5-0.92 6.4-2.04 0.72-0.56 1.36-1.2 1.92-2 0.56-0.76 0.96-1.44 1.24-2 0.24-0.56 0.48-1.16 0.68-1.76l2.92 1.04c-0.44 1.56-1.2 3.16-2.68 4.96-0.72 0.88-1.6 1.68-2.52 2.36-1.92 1.36-4.84 2.36-8.04 2.36zm41.107-0.32-3.2-7.44h-15.88l-3.2 7.44h-3.12l12.56-29.16h3.48l12.6 29.16h-3.24zm-4.36-10.24-6.8-15.76-6.76 15.76h13.56zm34.027 10.24h-3.72l-8.64-11.8h-5.92v11.8h-3.08v-29.16h10.12c3.44 0 6.2 0.96 7.8 2.56s2.44 3.6 2.44 5.96c0 4.92-3.68 7.76-8 8.32zm-18.28-26.28v11.68h6.76c2.56 0 4.56-0.72 5.72-1.88 1.12-1.12 1.68-2.52 1.68-4.08 0-2.88-1.76-5.72-7.32-5.72h-6.84zm45.414 26.28h-3.36l-9.12-29.16h3.2l7.64 24.76h0.08l7.68-24.76h3.48l7.76 24.88h0.04l7.68-24.88h3.08l-9.16 29.16h-3.4l-7.76-25.04zm55.627 0-3.2-7.44h-15.88l-3.2 7.44h-3.12l12.56-29.16h3.48l12.6 29.16h-3.24zm-4.36-10.24-6.8-15.76-6.76 15.76h13.56zm20.747 10.52c-2.76 0-5.4-1.04-7.12-2.56-1.8-1.56-2.96-3.64-3.2-5.68l2.88-0.8c0.32 1.72 1.2 3.16 2.64 4.36 1.4 1.2 3 1.8 4.8 1.8 1.68 0 3.24-0.4 4.48-1.28 1.24-0.84 2.04-2.28 2.04-4.04 0-2.04-1.08-3.36-2.44-4.16-0.96-0.56-1.8-0.8-2.76-1l-3.84-0.76c-0.8-0.16-1.64-0.44-2.56-0.84-0.92-0.44-1.72-0.96-2.4-1.64-1.36-1.32-2.04-3-2.04-5.04 0-1.6 0.44-3.04 1.32-4.28 0.88-1.28 2-2.2 3.4-2.88 1.4-0.64 2.88-0.96 4.52-0.96 6.28 0 9.04 3.88 9.64 7l-2.8 0.88c-0.48-2.08-2.36-5.04-6.88-5.04-3.12-0.08-6.16 2.12-6.12 5.16 0 2.24 1.4 4.04 4.24 4.6l3.68 0.72c2.48 0.48 4.4 1.32 5.68 2.56 0.88 0.8 1.52 1.72 1.92 2.68 0.4 1 0.6 1.88 0.6 2.68 0.04 5.12-4.28 8.64-9.68 8.52zm36.387-0.28v-13.36h-16.6v13.36h-3.08v-29.16h3.08v12.92h16.6v-12.92h3.08v29.16h-3.08z"/>
</g>
</svg>